<svg width="93" height="84" viewBox="0 0 93 84" fill="none" xmlns="http://www.w3.org/2000/svg">
<g clip-path="url(#clip0_1_859)">
<path d="M63.28 0.170089C63.28 0.170089 -5.44996 37.4301 0.350037 45.7101C6.15004 53.9901 85.64 90.4201 85.64 78.8301C85.64 67.2401 74.87 -3.96991 63.28 0.170089Z" fill="#E1E8EB"/>
<path d="M11.71 74.01C10.04 73.3 39.51 41.98 44.95 39.56C50.39 37.14 61.27 83.68 59.46 83.08C57.65 82.48 20.17 77.64 11.71 74.01Z" fill="#2A9D8F"/>
<path d="M19.22 14.1599C20.33 12.6799 33.92 7.22991 40.16 4.78991C41.59 4.22991 43.12 5.35991 43 6.89991L41.59 24.8499C41.47 26.3699 42.97 27.4999 44.4 26.9699L66.57 18.6999C68.02 18.1599 69.53 19.3199 69.38 20.8599L67.75 37.5099C67.58 39.2899 69.57 40.4499 71.03 39.4199L91.78 32.4399" stroke="#343A40" stroke-width="2" stroke-miterlimit="10" stroke-linecap="round"/>
</g>
<defs>
<clipPath id="clip0_1_859">
<rect width="92.78" height="83.08" fill="white"/>
</clipPath>
</defs>
</svg>
