<svg width="119" height="81" viewBox="0 0 119 81" fill="none" xmlns="http://www.w3.org/2000/svg">
<g clip-path="url(#clip0_1_853)">
<path d="M98.86 40.86C98.86 62.52 81.3 80.08 59.64 80.08C37.98 80.08 18.88 61.76 18.88 40.1C18.88 18.44 40.28 0 61.94 0C83.6 0 98.86 19.2 98.86 40.86Z" fill="#E1E8EB"/>
<path d="M66.6 28.63C66.6 28.63 92.32 4.02998 96.23 5.70998C100.14 7.38998 119.71 29.19 118.03 32.55C116.35 35.91 93.99 58.27 91.75 57.71C89.51 57.15 65.47 31.43 66.59 28.64L66.6 28.63Z" fill="#2A9D8F"/>
<path d="M21.14 68.9599C28.397 68.9599 34.28 63.077 34.28 55.8199C34.28 48.5629 28.397 42.6799 21.14 42.6799C13.883 42.6799 8 48.5629 8 55.8199C8 63.077 13.883 68.9599 21.14 68.9599Z" stroke="#264653" stroke-width="16" stroke-miterlimit="10" stroke-linecap="round"/>
<path d="M31 30.3099C30.77 29.6299 42.78 4.25991 76.09 13.0899" stroke="#343A40" stroke-width="2" stroke-miterlimit="10" stroke-linecap="round"/>
</g>
<defs>
<clipPath id="clip0_1_853">
<rect width="118.14" height="80.08" fill="white"/>
</clipPath>
</defs>
</svg>
