<svg width="90" height="72" viewBox="0 0 90 72" fill="none" xmlns="http://www.w3.org/2000/svg">
<g clip-path="url(#clip0_1_863)">
<path d="M32.6707 48.4656C38.3596 40.5125 36.577 29.4154 28.6891 23.6795C20.8013 17.9436 9.79517 19.7409 4.10627 27.694C-1.58262 35.647 0.199983 46.7441 8.08783 52.48C15.9757 58.216 26.9818 56.4186 32.6707 48.4656Z" fill="#E1E8EB"/>
<path d="M17.3702 37.5461C20.7007 74.8594 71.7148 71.8338 75.0536 44.9439C78.3842 18.0457 46.6529 6.22581 40.981 26.0088C36.7848 40.6548 74.1385 53.4971 83.4048 8.91064" stroke="#E76F51" stroke-width="16" stroke-miterlimit="10" stroke-linecap="round"/>
<path d="M27.263 15.8514C27.601 14.4799 38.1451 -6.44185 65.6966 3.50782" stroke="#343A40" stroke-width="2" stroke-miterlimit="10" stroke-linecap="round"/>
<path d="M0.824402 54.7605C0.824402 54.7605 5.42457 61.111 16.0841 61.8425" stroke="#343A40" stroke-width="2" stroke-miterlimit="10" stroke-linecap="round"/>
</g>
<defs>
<clipPath id="clip0_1_863">
<rect width="90" height="72" fill="white"/>
</clipPath>
</defs>
</svg>
