<svg width="120" height="92" viewBox="0 0 120 92" fill="none" xmlns="http://www.w3.org/2000/svg">
<g clip-path="url(#clip0_1_308)">
<path d="M17.1412 54.3238C21.3407 54.3238 24.7452 50.9028 24.7452 46.6827C24.7452 42.4626 21.3407 39.0415 17.1412 39.0415C12.9416 39.0415 9.53723 42.4626 9.53723 46.6827C9.53723 50.9028 12.9416 54.3238 17.1412 54.3238Z" fill="#FF6584"/>
<path d="M32.7132 89.8433H32.7055C32.4378 89.843 32.1811 89.736 31.9917 89.5457C31.8024 89.3555 31.6959 89.0975 31.6956 88.8285V29.2513C31.6959 28.9822 31.8024 28.7243 31.9917 28.534C32.1811 28.3438 32.4378 28.2368 32.7055 28.2365H82.6065C82.8743 28.2368 83.131 28.3438 83.3203 28.534C83.5096 28.7243 83.6161 28.9822 83.6164 29.2513V75.5758C83.6161 75.8435 83.5107 76.1003 83.3231 76.2903C83.1354 76.4803 82.8807 76.5883 82.6143 76.5906L32.7132 89.8433Z" fill="#F2F2F2"/>
<path d="M69.5966 19.8193H46.4283V6.32783C46.4286 6.04295 46.5414 5.76983 46.7418 5.56838C46.9423 5.36694 47.2141 5.25362 47.4976 5.2533H68.5273C68.8108 5.25362 69.0826 5.36694 69.283 5.56838C69.4835 5.76983 69.5963 6.04295 69.5966 6.32783V19.8193ZM46.6659 19.5805H69.359V6.32783C69.3587 6.10626 69.271 5.89382 69.1151 5.73714C68.9592 5.58046 68.7478 5.49233 68.5273 5.49208H47.4976C47.2771 5.49233 47.0657 5.58046 46.9098 5.73714C46.7539 5.89382 46.6662 6.10626 46.6659 6.32783V19.5805Z" fill="#3F3D56"/>
<path d="M53.0224 10.3872H63.0026C63.2547 10.3872 63.4964 10.4878 63.6747 10.667C63.853 10.8461 63.9531 11.089 63.9531 11.3424V25.6695H52.0719V11.3424C52.0719 11.089 52.172 10.8461 52.3503 10.667C52.5285 10.4878 52.7703 10.3872 53.0224 10.3872Z" fill="#E6E6E6"/>
<path d="M54.9828 5.49208H50.1115V0.596966C50.1117 0.438696 50.1743 0.286961 50.2857 0.175047C50.3971 0.0631336 50.5481 0.000181066 50.7056 0H54.3887C54.5462 0.000181066 54.6972 0.0631336 54.8086 0.175047C54.92 0.286961 54.9826 0.438696 54.9828 0.596966V5.49208ZM50.3491 5.2533H54.7452V0.596966C54.7451 0.502002 54.7075 0.410958 54.6407 0.343809C54.5738 0.27666 54.4832 0.23889 54.3887 0.238786H50.7056C50.6111 0.23889 50.5205 0.27666 50.4536 0.343809C50.3868 0.410958 50.3492 0.502002 50.3491 0.596966V5.2533Z" fill="#3F3D56"/>
<path d="M95.0117 77.4671C94.9643 77.4671 94.9182 77.4671 94.8709 77.4659C91.9315 77.4332 89.1052 76.3231 86.923 74.3441C86.8423 74.2703 86.7623 74.1955 86.6829 74.1197L86.6461 74.0845V51.2025L86.6575 51.1783C86.7361 51.0108 86.8159 50.8456 86.8957 50.6805C89.367 45.6385 92.2492 42.8622 95.0117 42.8622C98.9954 42.8622 102.085 48.3535 103.572 51.6268C105.64 56.1785 107.084 61.8187 107.084 65.3427C107.083 68.5352 105.83 71.5986 103.595 73.8681C101.361 76.1377 98.3263 77.4305 95.1496 77.4659C95.1052 77.4671 95.0578 77.4671 95.0117 77.4671ZM86.8837 73.9821C86.9496 74.0446 87.016 74.1063 87.0825 74.1671C89.2222 76.1073 91.9933 77.1954 94.8751 77.2271C94.9233 77.2283 94.9688 77.227 95.0148 77.2283C95.0579 77.2283 95.1022 77.2283 95.1453 77.2272C101.598 77.1552 106.847 71.8239 106.847 65.3427C106.847 61.8493 105.411 56.2499 103.356 51.726C101.892 48.5048 98.8625 43.101 95.0117 43.101C92.3445 43.101 89.538 45.83 87.1091 50.7853C87.0339 50.9412 86.9583 51.0976 86.8837 51.256L86.8837 73.9821Z" fill="#3F3D56"/>
<path d="M95.0111 91.9432C94.9748 91.9432 94.9401 91.9287 94.9144 91.9029C94.8888 91.8772 94.8744 91.8422 94.8744 91.8058V63.7641C94.8743 63.746 94.8777 63.7281 94.8846 63.7113C94.8914 63.6946 94.9014 63.6793 94.9141 63.6665C94.9268 63.6537 94.9419 63.6435 94.9586 63.6365C94.9752 63.6296 94.9931 63.626 95.0111 63.626C95.0291 63.626 95.0469 63.6296 95.0636 63.6365C95.0802 63.6435 95.0953 63.6537 95.108 63.6665C95.1207 63.6793 95.1308 63.6946 95.1376 63.7113C95.1444 63.7281 95.1479 63.746 95.1478 63.7641V91.8058C95.1478 91.8422 95.1334 91.8772 95.1077 91.9029C95.0821 91.9287 95.0473 91.9432 95.0111 91.9432Z" fill="#CCCCCC"/>
<path d="M24.0804 91.9432C24.0442 91.9432 24.0094 91.9287 23.9838 91.9029C23.9581 91.8772 23.9437 91.8422 23.9437 91.8058V63.7641C23.9436 63.746 23.9471 63.7281 23.9539 63.7113C23.9607 63.6946 23.9708 63.6793 23.9835 63.6665C23.9962 63.6537 24.0113 63.6435 24.0279 63.6365C24.0446 63.6296 24.0624 63.626 24.0804 63.626C24.0984 63.626 24.1163 63.6296 24.1329 63.6365C24.1496 63.6435 24.1647 63.6537 24.1774 63.6665C24.1901 63.6793 24.2001 63.6946 24.2069 63.7113C24.2138 63.7281 24.2172 63.746 24.2171 63.7641V91.8058C24.2171 91.8422 24.2027 91.8772 24.1771 91.9029C24.1514 91.9287 24.1167 91.9432 24.0804 91.9432Z" fill="#CCCCCC"/>
<path d="M95.0113 69.0034C94.9916 69.0034 94.9723 68.9992 94.9544 68.991C94.9366 68.9829 94.9207 68.9709 94.9079 68.956L88.033 60.9889C88.0093 60.9614 87.9975 60.9255 88.0001 60.8892C88.0027 60.8529 88.0195 60.8192 88.0469 60.7953C88.0743 60.7715 88.1099 60.7595 88.146 60.7621C88.1822 60.7646 88.2158 60.7814 88.2396 60.8089L95.1145 68.776C95.1316 68.7959 95.1427 68.8204 95.1465 68.8464C95.1502 68.8725 95.1464 68.8991 95.1355 68.923C95.1247 68.947 95.1072 68.9673 95.0851 68.9815C95.0631 68.9958 95.0375 69.0034 95.0113 69.0034Z" fill="#CCCCCC"/>
<path d="M95.0111 73.6013C94.984 73.6013 94.9576 73.5932 94.9351 73.5782C94.9127 73.5631 94.8951 73.5416 94.8848 73.5165C94.8745 73.4914 94.8717 73.4638 94.877 73.4372C94.8823 73.4105 94.8953 73.386 94.9144 73.3668L98.8209 69.4412C98.8465 69.4156 98.8812 69.4012 98.9174 69.4012C98.9536 69.4013 98.9883 69.4158 99.0139 69.4415C99.0395 69.4672 99.0539 69.502 99.0539 69.5384C99.054 69.5748 99.0397 69.6097 99.0142 69.6354L95.1077 73.5611C95.095 73.5739 95.08 73.584 95.0634 73.5909C95.0468 73.5978 95.029 73.6013 95.0111 73.6013Z" fill="#CCCCCC"/>
<path d="M107.658 92H97.4398V91.8806C97.4395 91.2061 97.5714 90.5382 97.828 89.9151C98.0846 89.2919 98.4609 88.7256 98.9354 88.2485C99.4099 87.7715 99.9732 87.3931 100.593 87.135C101.213 86.8768 101.878 86.7439 102.549 86.7439C103.22 86.7439 103.885 86.8768 104.505 87.135C105.125 87.3931 105.688 87.7715 106.163 88.2485C106.637 88.7256 107.013 89.2919 107.27 89.9151C107.527 90.5382 107.659 91.2061 107.658 91.8806L107.658 92ZM97.6789 91.7612H107.419C107.388 90.4839 106.861 89.2694 105.952 88.377C105.042 87.4846 103.82 86.9851 102.549 86.9851C101.278 86.9851 100.056 87.4846 99.1465 88.377C98.2366 89.2694 97.7099 90.4839 97.6789 91.7612Z" fill="#3F3D56"/>
<path d="M102.549 88.9666C102.513 88.9666 102.479 88.9808 102.454 89.0063C102.428 89.0317 102.414 89.0661 102.414 89.1021V90.5419L101.018 89.3381C101.005 89.3264 100.989 89.3176 100.973 89.312C100.956 89.3064 100.938 89.3042 100.92 89.3055C100.903 89.3069 100.885 89.3117 100.869 89.3197C100.854 89.3278 100.84 89.3389 100.828 89.3524C100.816 89.3659 100.808 89.3816 100.802 89.3986C100.797 89.4155 100.794 89.4334 100.796 89.4512C100.797 89.4689 100.802 89.4863 100.81 89.5022C100.818 89.5181 100.829 89.5322 100.843 89.5438L102.414 90.8991V91.745C102.414 91.7629 102.418 91.7805 102.424 91.797C102.431 91.8135 102.441 91.8285 102.454 91.8411C102.466 91.8538 102.481 91.8638 102.497 91.8706C102.514 91.8775 102.531 91.881 102.549 91.881C102.567 91.881 102.584 91.8775 102.601 91.8706C102.617 91.8638 102.632 91.8538 102.645 91.8411C102.657 91.8285 102.667 91.8135 102.674 91.797C102.681 91.7805 102.684 91.7629 102.684 91.745V89.1021C102.684 89.0661 102.67 89.0317 102.644 89.0063C102.619 88.9808 102.585 88.9666 102.549 88.9666Z" fill="#3F3D56"/>
<path d="M21.9949 92H11.7765V91.8806C11.7762 91.2061 11.9081 90.5382 12.1647 89.9151C12.4213 89.2919 12.7976 88.7256 13.2721 88.2485C13.7465 87.7715 14.3099 87.3931 14.9299 87.135C15.55 86.8768 16.2145 86.7439 16.8857 86.7439C17.5569 86.7439 18.2214 86.8768 18.8415 87.135C19.4615 87.3931 20.0249 87.7715 20.4993 88.2485C20.9738 88.7256 21.3501 89.2919 21.6067 89.9151C21.8633 90.5382 21.9952 91.2061 21.9949 91.8806L21.9949 92ZM12.0155 91.7612H21.7559C21.7249 90.4839 21.1982 89.2694 20.2882 88.377C19.3782 87.4846 18.1572 86.9851 16.8857 86.9851C15.6142 86.9851 14.3932 87.4846 13.4832 88.377C12.5733 89.2694 12.0465 90.4839 12.0155 91.7612Z" fill="#3F3D56"/>
<path d="M16.8857 88.9666C16.8499 88.9666 16.8156 88.9808 16.7903 89.0063C16.765 89.0317 16.7508 89.0661 16.7508 89.1021V90.5419L15.3551 89.3381C15.3416 89.3264 15.3261 89.3176 15.3092 89.312C15.2924 89.3064 15.2746 89.3042 15.2569 89.3055C15.2392 89.3069 15.2219 89.3117 15.2061 89.3197C15.1903 89.3278 15.1762 89.3389 15.1646 89.3524C15.1531 89.3659 15.1443 89.3816 15.1388 89.3986C15.1332 89.4155 15.1311 89.4334 15.1325 89.4512C15.1339 89.4689 15.1387 89.4863 15.1467 89.5022C15.1548 89.5181 15.1659 89.5322 15.1794 89.5438L16.7508 90.8991V91.745C16.7508 91.7629 16.7542 91.7805 16.761 91.797C16.7677 91.8135 16.7777 91.8285 16.7902 91.8411C16.8027 91.8538 16.8176 91.8638 16.834 91.8706C16.8504 91.8775 16.868 91.881 16.8857 91.881C16.9035 91.881 16.921 91.8775 16.9374 91.8706C16.9538 91.8638 16.9687 91.8538 16.9812 91.8411C16.9938 91.8285 17.0037 91.8135 17.0104 91.797C17.0172 91.7805 17.0206 91.7629 17.0206 91.745V89.1021C17.0206 89.0661 17.0064 89.0317 16.9811 89.0063C16.9558 88.9808 16.9215 88.9666 16.8857 88.9666Z" fill="#3F3D56"/>
<path d="M24.1998 77.4671C24.1525 77.4671 24.1064 77.4671 24.059 77.4659C20.8826 77.4298 17.8484 76.1368 15.6146 73.8673C13.3807 71.5979 12.1273 68.5349 12.1262 65.3427C12.1262 61.8186 13.5705 56.1784 15.6384 51.6268C17.1256 48.3535 20.2154 42.8622 24.1998 42.8622C25.841 42.8622 27.4936 43.8022 29.1117 45.6561C29.192 45.7475 29.2724 45.8416 29.3516 45.9381L29.3788 45.9712V76.2955L29.3118 76.3281C29.2319 76.367 29.1507 76.4036 29.0696 76.4388C27.5785 77.1019 25.9682 77.4514 24.3377 77.4659C24.2934 77.4671 24.246 77.4671 24.1998 77.4671ZM24.1998 43.101C20.3483 43.101 17.3181 48.5048 15.8546 51.726C13.7993 56.2498 12.3638 61.8492 12.3638 65.3427C12.3638 71.8228 17.6122 77.1541 24.0633 77.2271C24.1114 77.2283 24.1562 77.2287 24.203 77.2283C24.2461 77.2283 24.2903 77.2283 24.3334 77.2272C25.9326 77.2131 27.5119 76.8704 28.9744 76.2201C29.0304 76.1957 29.0861 76.1709 29.1412 76.1451V46.0572C29.0724 45.9742 29.0028 45.8931 28.9333 45.8137C27.362 44.0136 25.7696 43.101 24.1998 43.101Z" fill="#3F3D56"/>
<path d="M24.1993 69.0034C24.1797 69.0034 24.1603 68.9992 24.1425 68.991C24.1246 68.9829 24.1088 68.9709 24.0959 68.956L17.2211 60.9889C17.1974 60.9614 17.1856 60.9255 17.1882 60.8892C17.1908 60.8529 17.2076 60.8192 17.235 60.7953C17.2623 60.7715 17.298 60.7595 17.3341 60.7621C17.3702 60.7646 17.4038 60.7814 17.4276 60.8089L24.3025 68.776C24.3197 68.7959 24.3308 68.8204 24.3345 68.8464C24.3383 68.8725 24.3345 68.8991 24.3236 68.923C24.3127 68.947 24.2952 68.9673 24.2732 68.9815C24.2511 68.9958 24.2255 69.0034 24.1993 69.0034Z" fill="#CCCCCC"/>
<path d="M24.1992 73.6013C24.1722 73.6013 24.1458 73.5932 24.1233 73.5782C24.1008 73.5631 24.0833 73.5416 24.073 73.5165C24.0626 73.4914 24.0599 73.4638 24.0652 73.4372C24.0705 73.4105 24.0835 73.386 24.1026 73.3668L28.009 69.4412C28.0347 69.4156 28.0694 69.4012 28.1056 69.4012C28.1418 69.4013 28.1765 69.4158 28.2021 69.4415C28.2276 69.4672 28.242 69.502 28.2421 69.5384C28.2421 69.5748 28.2278 69.6097 28.2023 69.6354L24.2959 73.5611C24.2832 73.5739 24.2682 73.584 24.2516 73.5909C24.235 73.5978 24.2172 73.6013 24.1992 73.6013Z" fill="#CCCCCC"/>
<path d="M34.9344 20.7744L35.0224 20.9487C35.0613 21.0239 35.0817 21.1075 35.0818 21.1923V25.9083H39.2402V21.1923C39.2402 21.1075 39.2606 21.0239 39.2996 20.9487L39.3875 20.7744H34.9344ZM39.0026 21.1923V25.6695H35.3194V21.1923C35.3195 21.1319 35.3123 21.0718 35.298 21.0132H39.024C39.0097 21.0718 39.0025 21.1319 39.0026 21.1923ZM40.1621 20.7744L40.2501 20.9487C40.2891 21.0239 40.3094 21.1075 40.3095 21.1923V25.9083H44.4679V21.1923C44.468 21.1075 44.4883 21.0239 44.5273 20.9487L44.6153 20.7744H40.1621ZM44.2303 21.1923V25.6695H40.5471V21.1923C40.5472 21.1319 40.54 21.0718 40.5257 21.0132H44.2517C44.2374 21.0718 44.2302 21.1319 44.2303 21.1923ZM45.3899 20.7744L45.4778 20.9487C45.5168 21.0239 45.5372 21.1075 45.5372 21.1923V25.9083H49.6956V21.1923C49.6957 21.1075 49.7161 21.0239 49.755 20.9487L49.843 20.7744H45.3899ZM49.458 21.1923V25.6695H45.7748V21.1923C45.7749 21.1319 45.7677 21.0718 45.7534 21.0132H49.4794C49.4651 21.0718 49.4579 21.1319 49.458 21.1923ZM50.6176 20.7744L50.7055 20.9487C50.7445 21.0239 50.7649 21.1075 50.7649 21.1923V25.9083H54.9234V21.1923C54.9234 21.1075 54.9438 21.0239 54.9828 20.9487L55.0707 20.7744H50.6176ZM54.6857 21.1923V25.6695H51.0026V21.1923C51.0026 21.1319 50.9954 21.0718 50.9812 21.0132H54.7071C54.6929 21.0718 54.6857 21.1319 54.6857 21.1923ZM55.8453 20.7744L55.9333 20.9487C55.9722 21.0239 55.9926 21.1075 55.9927 21.1923V25.9083H60.1511V21.1923C60.1511 21.1075 60.1715 21.0239 60.2105 20.9487L60.2984 20.7744H55.8453ZM59.9135 21.1923V25.6695H56.2303V21.1923C56.2304 21.1319 56.2232 21.0718 56.2089 21.0132H59.9349C59.9206 21.0718 59.9134 21.1319 59.9135 21.1923ZM61.073 20.7744L61.161 20.9487C61.2 21.0239 61.2203 21.1075 61.2204 21.1923V25.9083H65.3788V21.1923C65.3789 21.1075 65.3992 21.0239 65.4382 20.9487L65.5262 20.7744H61.073ZM65.1412 21.1923V25.6695H61.458V21.1923C61.4581 21.1319 61.4509 21.0718 61.4366 21.0132H65.1626C65.1483 21.0718 65.1411 21.1319 65.1412 21.1923ZM66.3008 20.7744L66.3887 20.9487C66.4277 21.0239 66.4481 21.1075 66.4481 21.1923V25.9083H70.6065V21.1923C70.6066 21.1075 70.627 21.0239 70.6659 20.9487L70.7539 20.7744H66.3008ZM70.3689 21.1923V25.6695H66.6857V21.1923C66.6858 21.1319 66.6786 21.0718 66.6643 21.0132H70.3903C70.376 21.0718 70.3688 21.1319 70.3689 21.1923ZM71.5285 20.7744L71.6164 20.9487C71.6554 21.0239 71.6758 21.1075 71.6758 21.1923V25.9083H75.8342V21.1923C75.8343 21.1075 75.8547 21.0239 75.8937 20.9487L75.9816 20.7744H71.5285ZM75.5966 21.1923V25.6695H71.9135V21.1923C71.9135 21.1319 71.9063 21.0718 71.892 21.0132H75.618C75.6037 21.0718 75.5966 21.1319 75.5966 21.1923ZM76.7562 20.7744L76.8441 20.9487C76.8831 21.0239 76.9035 21.1075 76.9036 21.1923V25.9083H81.062V21.1923C81.062 21.1075 81.0824 21.0239 81.1214 20.9487L81.2093 20.7744H76.7562ZM80.8243 21.1923V25.6695H77.1412V21.1923C77.1412 21.1319 77.1341 21.0718 77.1198 21.0132H80.8458C80.8315 21.0718 80.8243 21.1319 80.8243 21.1923ZM76.7562 20.7744L76.8441 20.9487C76.8831 21.0239 76.9035 21.1075 76.9036 21.1923V25.9083H81.062V21.1923C81.062 21.1075 81.0824 21.0239 81.1214 20.9487L81.2093 20.7744H76.7562ZM80.8243 21.1923V25.6695H77.1412V21.1923C77.1412 21.1319 77.1341 21.0718 77.1198 21.0132H80.8458C80.8315 21.0718 80.8243 21.1319 80.8243 21.1923ZM71.5285 20.7744L71.6164 20.9487C71.6554 21.0239 71.6758 21.1075 71.6758 21.1923V25.9083H75.8342V21.1923C75.8343 21.1075 75.8547 21.0239 75.8937 20.9487L75.9816 20.7744H71.5285ZM75.5966 21.1923V25.6695H71.9135V21.1923C71.9135 21.1319 71.9063 21.0718 71.892 21.0132H75.618C75.6037 21.0718 75.5966 21.1319 75.5966 21.1923ZM66.3008 20.7744L66.3887 20.9487C66.4277 21.0239 66.4481 21.1075 66.4481 21.1923V25.9083H70.6065V21.1923C70.6066 21.1075 70.627 21.0239 70.6659 20.9487L70.7539 20.7744H66.3008ZM70.3689 21.1923V25.6695H66.6857V21.1923C66.6858 21.1319 66.6786 21.0718 66.6643 21.0132H70.3903C70.376 21.0718 70.3688 21.1319 70.3689 21.1923ZM61.073 20.7744L61.161 20.9487C61.2 21.0239 61.2203 21.1075 61.2204 21.1923V25.9083H65.3788V21.1923C65.3789 21.1075 65.3992 21.0239 65.4382 20.9487L65.5262 20.7744H61.073ZM65.1412 21.1923V25.6695H61.458V21.1923C61.4581 21.1319 61.4509 21.0718 61.4366 21.0132H65.1626C65.1483 21.0718 65.1411 21.1319 65.1412 21.1923ZM55.8453 20.7744L55.9333 20.9487C55.9722 21.0239 55.9926 21.1075 55.9927 21.1923V25.9083H60.1511V21.1923C60.1511 21.1075 60.1715 21.0239 60.2105 20.9487L60.2984 20.7744H55.8453ZM59.9135 21.1923V25.6695H56.2303V21.1923C56.2304 21.1319 56.2232 21.0718 56.2089 21.0132H59.9349C59.9206 21.0718 59.9134 21.1319 59.9135 21.1923ZM50.6176 20.7744L50.7055 20.9487C50.7445 21.0239 50.7649 21.1075 50.7649 21.1923V25.9083H54.9234V21.1923C54.9234 21.1075 54.9438 21.0239 54.9828 20.9487L55.0707 20.7744H50.6176ZM54.6857 21.1923V25.6695H51.0026V21.1923C51.0026 21.1319 50.9954 21.0718 50.9812 21.0132H54.7071C54.6929 21.0718 54.6857 21.1319 54.6857 21.1923ZM45.3899 20.7744L45.4778 20.9487C45.5168 21.0239 45.5372 21.1075 45.5372 21.1923V25.9083H49.6956V21.1923C49.6957 21.1075 49.7161 21.0239 49.755 20.9487L49.843 20.7744H45.3899ZM49.458 21.1923V25.6695H45.7748V21.1923C45.7749 21.1319 45.7677 21.0718 45.7534 21.0132H49.4794C49.4651 21.0718 49.4579 21.1319 49.458 21.1923ZM40.1621 20.7744L40.2501 20.9487C40.2891 21.0239 40.3094 21.1075 40.3095 21.1923V25.9083H44.4679V21.1923C44.468 21.1075 44.4883 21.0239 44.5273 20.9487L44.6153 20.7744H40.1621ZM44.2303 21.1923V25.6695H40.5471V21.1923C40.5472 21.1319 40.54 21.0718 40.5257 21.0132H44.2517C44.2374 21.0718 44.2302 21.1319 44.2303 21.1923ZM34.9344 20.7744L35.0224 20.9487C35.0613 21.0239 35.0817 21.1075 35.0818 21.1923V25.9083H39.2402V21.1923C39.2402 21.1075 39.2606 21.0239 39.2996 20.9487L39.3875 20.7744H34.9344ZM39.0026 21.1923V25.6695H35.3194V21.1923C35.3195 21.1319 35.3123 21.0718 35.298 21.0132H39.024C39.0097 21.0718 39.0025 21.1319 39.0026 21.1923ZM76.7562 20.7744L76.8441 20.9487C76.8831 21.0239 76.9035 21.1075 76.9036 21.1923V25.9083H81.062V21.1923C81.062 21.1075 81.0824 21.0239 81.1214 20.9487L81.2093 20.7744H76.7562ZM80.8243 21.1923V25.6695H77.1412V21.1923C77.1412 21.1319 77.1341 21.0718 77.1198 21.0132H80.8458C80.8315 21.0718 80.8243 21.1319 80.8243 21.1923ZM71.5285 20.7744L71.6164 20.9487C71.6554 21.0239 71.6758 21.1075 71.6758 21.1923V25.9083H75.8342V21.1923C75.8343 21.1075 75.8547 21.0239 75.8937 20.9487L75.9816 20.7744H71.5285ZM75.5966 21.1923V25.6695H71.9135V21.1923C71.9135 21.1319 71.9063 21.0718 71.892 21.0132H75.618C75.6037 21.0718 75.5966 21.1319 75.5966 21.1923ZM66.3008 20.7744L66.3887 20.9487C66.4277 21.0239 66.4481 21.1075 66.4481 21.1923V25.9083H70.6065V21.1923C70.6066 21.1075 70.627 21.0239 70.6659 20.9487L70.7539 20.7744H66.3008ZM70.3689 21.1923V25.6695H66.6857V21.1923C66.6858 21.1319 66.6786 21.0718 66.6643 21.0132H70.3903C70.376 21.0718 70.3688 21.1319 70.3689 21.1923ZM61.073 20.7744L61.161 20.9487C61.2 21.0239 61.2203 21.1075 61.2204 21.1923V25.9083H65.3788V21.1923C65.3789 21.1075 65.3992 21.0239 65.4382 20.9487L65.5262 20.7744H61.073ZM65.1412 21.1923V25.6695H61.458V21.1923C61.4581 21.1319 61.4509 21.0718 61.4366 21.0132H65.1626C65.1483 21.0718 65.1411 21.1319 65.1412 21.1923ZM55.8453 20.7744L55.9333 20.9487C55.9722 21.0239 55.9926 21.1075 55.9927 21.1923V25.9083H60.1511V21.1923C60.1511 21.1075 60.1715 21.0239 60.2105 20.9487L60.2984 20.7744H55.8453ZM59.9135 21.1923V25.6695H56.2303V21.1923C56.2304 21.1319 56.2232 21.0718 56.2089 21.0132H59.9349C59.9206 21.0718 59.9134 21.1319 59.9135 21.1923ZM50.6176 20.7744L50.7055 20.9487C50.7445 21.0239 50.7649 21.1075 50.7649 21.1923V25.9083H54.9234V21.1923C54.9234 21.1075 54.9438 21.0239 54.9828 20.9487L55.0707 20.7744H50.6176ZM54.6857 21.1923V25.6695H51.0026V21.1923C51.0026 21.1319 50.9954 21.0718 50.9812 21.0132H54.7071C54.6929 21.0718 54.6857 21.1319 54.6857 21.1923ZM45.3899 20.7744L45.4778 20.9487C45.5168 21.0239 45.5372 21.1075 45.5372 21.1923V25.9083H49.6956V21.1923C49.6957 21.1075 49.7161 21.0239 49.755 20.9487L49.843 20.7744H45.3899ZM49.458 21.1923V25.6695H45.7748V21.1923C45.7749 21.1319 45.7677 21.0718 45.7534 21.0132H49.4794C49.4651 21.0718 49.4579 21.1319 49.458 21.1923ZM40.1621 20.7744L40.2501 20.9487C40.2891 21.0239 40.3094 21.1075 40.3095 21.1923V25.9083H44.4679V21.1923C44.468 21.1075 44.4883 21.0239 44.5273 20.9487L44.6153 20.7744H40.1621ZM44.2303 21.1923V25.6695H40.5471V21.1923C40.5472 21.1319 40.54 21.0718 40.5257 21.0132H44.2517C44.2374 21.0718 44.2302 21.1319 44.2303 21.1923ZM34.9344 20.7744L35.0224 20.9487C35.0613 21.0239 35.0817 21.1075 35.0818 21.1923V25.9083H39.2402V21.1923C39.2402 21.1075 39.2606 21.0239 39.2996 20.9487L39.3875 20.7744H34.9344ZM39.0026 21.1923V25.6695H35.3194V21.1923C35.3195 21.1319 35.3123 21.0718 35.298 21.0132H39.024C39.0097 21.0718 39.0025 21.1319 39.0026 21.1923ZM76.7562 20.7744L76.8441 20.9487C76.8831 21.0239 76.9035 21.1075 76.9036 21.1923V25.9083H81.062V21.1923C81.062 21.1075 81.0824 21.0239 81.1214 20.9487L81.2093 20.7744H76.7562ZM80.8243 21.1923V25.6695H77.1412V21.1923C77.1412 21.1319 77.1341 21.0718 77.1198 21.0132H80.8458C80.8315 21.0718 80.8243 21.1319 80.8243 21.1923ZM71.5285 20.7744L71.6164 20.9487C71.6554 21.0239 71.6758 21.1075 71.6758 21.1923V25.9083H75.8342V21.1923C75.8343 21.1075 75.8547 21.0239 75.8937 20.9487L75.9816 20.7744H71.5285ZM75.5966 21.1923V25.6695H71.9135V21.1923C71.9135 21.1319 71.9063 21.0718 71.892 21.0132H75.618C75.6037 21.0718 75.5966 21.1319 75.5966 21.1923ZM66.3008 20.7744L66.3887 20.9487C66.4277 21.0239 66.4481 21.1075 66.4481 21.1923V25.9083H70.6065V21.1923C70.6066 21.1075 70.627 21.0239 70.6659 20.9487L70.7539 20.7744H66.3008ZM70.3689 21.1923V25.6695H66.6857V21.1923C66.6858 21.1319 66.6786 21.0718 66.6643 21.0132H70.3903C70.376 21.0718 70.3688 21.1319 70.3689 21.1923ZM61.073 20.7744L61.161 20.9487C61.2 21.0239 61.2203 21.1075 61.2204 21.1923V25.9083H65.3788V21.1923C65.3789 21.1075 65.3992 21.0239 65.4382 20.9487L65.5262 20.7744H61.073ZM65.1412 21.1923V25.6695H61.458V21.1923C61.4581 21.1319 61.4509 21.0718 61.4366 21.0132H65.1626C65.1483 21.0718 65.1411 21.1319 65.1412 21.1923ZM55.8453 20.7744L55.9333 20.9487C55.9722 21.0239 55.9926 21.1075 55.9927 21.1923V25.9083H60.1511V21.1923C60.1511 21.1075 60.1715 21.0239 60.2105 20.9487L60.2984 20.7744H55.8453ZM59.9135 21.1923V25.6695H56.2303V21.1923C56.2304 21.1319 56.2232 21.0718 56.2089 21.0132H59.9349C59.9206 21.0718 59.9134 21.1319 59.9135 21.1923ZM50.6176 20.7744L50.7055 20.9487C50.7445 21.0239 50.7649 21.1075 50.7649 21.1923V25.9083H54.9234V21.1923C54.9234 21.1075 54.9438 21.0239 54.9828 20.9487L55.0707 20.7744H50.6176ZM54.6857 21.1923V25.6695H51.0026V21.1923C51.0026 21.1319 50.9954 21.0718 50.9812 21.0132H54.7071C54.6929 21.0718 54.6857 21.1319 54.6857 21.1923ZM45.3899 20.7744L45.4778 20.9487C45.5168 21.0239 45.5372 21.1075 45.5372 21.1923V25.9083H49.6956V21.1923C49.6957 21.1075 49.7161 21.0239 49.755 20.9487L49.843 20.7744H45.3899ZM49.458 21.1923V25.6695H45.7748V21.1923C45.7749 21.1319 45.7677 21.0718 45.7534 21.0132H49.4794C49.4651 21.0718 49.4579 21.1319 49.458 21.1923ZM40.1621 20.7744L40.2501 20.9487C40.2891 21.0239 40.3094 21.1075 40.3095 21.1923V25.9083H44.4679V21.1923C44.468 21.1075 44.4883 21.0239 44.5273 20.9487L44.6153 20.7744H40.1621ZM44.2303 21.1923V25.6695H40.5471V21.1923C40.5472 21.1319 40.54 21.0718 40.5257 21.0132H44.2517C44.2374 21.0718 44.2302 21.1319 44.2303 21.1923ZM34.9344 20.7744L35.0224 20.9487C35.0613 21.0239 35.0817 21.1075 35.0818 21.1923V25.9083H39.2402V21.1923C39.2402 21.1075 39.2606 21.0239 39.2996 20.9487L39.3875 20.7744H34.9344ZM39.0026 21.1923V25.6695H35.3194V21.1923C35.3195 21.1319 35.3123 21.0718 35.298 21.0132H39.024C39.0097 21.0718 39.0025 21.1319 39.0026 21.1923ZM76.7562 20.7744L76.8441 20.9487C76.8831 21.0239 76.9035 21.1075 76.9036 21.1923V25.9083H81.062V21.1923C81.062 21.1075 81.0824 21.0239 81.1214 20.9487L81.2093 20.7744H76.7562ZM80.8243 21.1923V25.6695H77.1412V21.1923C77.1412 21.1319 77.1341 21.0718 77.1198 21.0132H80.8458C80.8315 21.0718 80.8243 21.1319 80.8243 21.1923ZM71.5285 20.7744L71.6164 20.9487C71.6554 21.0239 71.6758 21.1075 71.6758 21.1923V25.9083H75.8342V21.1923C75.8343 21.1075 75.8547 21.0239 75.8937 20.9487L75.9816 20.7744H71.5285ZM75.5966 21.1923V25.6695H71.9135V21.1923C71.9135 21.1319 71.9063 21.0718 71.892 21.0132H75.618C75.6037 21.0718 75.5966 21.1319 75.5966 21.1923ZM66.3008 20.7744L66.3887 20.9487C66.4277 21.0239 66.4481 21.1075 66.4481 21.1923V25.9083H70.6065V21.1923C70.6066 21.1075 70.627 21.0239 70.6659 20.9487L70.7539 20.7744H66.3008ZM70.3689 21.1923V25.6695H66.6857V21.1923C66.6858 21.1319 66.6786 21.0718 66.6643 21.0132H70.3903C70.376 21.0718 70.3688 21.1319 70.3689 21.1923ZM61.073 20.7744L61.161 20.9487C61.2 21.0239 61.2203 21.1075 61.2204 21.1923V25.9083H65.3788V21.1923C65.3789 21.1075 65.3992 21.0239 65.4382 20.9487L65.5262 20.7744H61.073ZM65.1412 21.1923V25.6695H61.458V21.1923C61.4581 21.1319 61.4509 21.0718 61.4366 21.0132H65.1626C65.1483 21.0718 65.1411 21.1319 65.1412 21.1923ZM55.8453 20.7744L55.9333 20.9487C55.9722 21.0239 55.9926 21.1075 55.9927 21.1923V25.9083H60.1511V21.1923C60.1511 21.1075 60.1715 21.0239 60.2105 20.9487L60.2984 20.7744H55.8453ZM59.9135 21.1923V25.6695H56.2303V21.1923C56.2304 21.1319 56.2232 21.0718 56.2089 21.0132H59.9349C59.9206 21.0718 59.9134 21.1319 59.9135 21.1923ZM50.6176 20.7744L50.7055 20.9487C50.7445 21.0239 50.7649 21.1075 50.7649 21.1923V25.9083H54.9234V21.1923C54.9234 21.1075 54.9438 21.0239 54.9828 20.9487L55.0707 20.7744H50.6176ZM54.6857 21.1923V25.6695H51.0026V21.1923C51.0026 21.1319 50.9954 21.0718 50.9812 21.0132H54.7071C54.6929 21.0718 54.6857 21.1319 54.6857 21.1923ZM45.3899 20.7744L45.4778 20.9487C45.5168 21.0239 45.5372 21.1075 45.5372 21.1923V25.9083H49.6956V21.1923C49.6957 21.1075 49.7161 21.0239 49.755 20.9487L49.843 20.7744H45.3899ZM49.458 21.1923V25.6695H45.7748V21.1923C45.7749 21.1319 45.7677 21.0718 45.7534 21.0132H49.4794C49.4651 21.0718 49.4579 21.1319 49.458 21.1923ZM40.1621 20.7744L40.2501 20.9487C40.2891 21.0239 40.3094 21.1075 40.3095 21.1923V25.9083H44.4679V21.1923C44.468 21.1075 44.4883 21.0239 44.5273 20.9487L44.6153 20.7744H40.1621ZM44.2303 21.1923V25.6695H40.5471V21.1923C40.5472 21.1319 40.54 21.0718 40.5257 21.0132H44.2517C44.2374 21.0718 44.2302 21.1319 44.2303 21.1923ZM34.9344 20.7744L35.0224 20.9487C35.0613 21.0239 35.0817 21.1075 35.0818 21.1923V25.9083H39.2402V21.1923C39.2402 21.1075 39.2606 21.0239 39.2996 20.9487L39.3875 20.7744H34.9344ZM39.0026 21.1923V25.6695H35.3194V21.1923C35.3195 21.1319 35.3123 21.0718 35.298 21.0132H39.024C39.0097 21.0718 39.0025 21.1319 39.0026 21.1923ZM76.7562 20.7744L76.8441 20.9487C76.8831 21.0239 76.9035 21.1075 76.9036 21.1923V25.9083H81.062V21.1923C81.062 21.1075 81.0824 21.0239 81.1214 20.9487L81.2093 20.7744H76.7562ZM80.8243 21.1923V25.6695H77.1412V21.1923C77.1412 21.1319 77.1341 21.0718 77.1198 21.0132H80.8458C80.8315 21.0718 80.8243 21.1319 80.8243 21.1923ZM71.6164 20.9487C71.6554 21.0239 71.6758 21.1075 71.6758 21.1923V25.9083H75.8342V21.1923C75.8343 21.1075 75.8547 21.0239 75.8937 20.9487L75.9816 20.7744H71.5285L71.6164 20.9487ZM75.618 21.0132C75.6037 21.0718 75.5966 21.1319 75.5966 21.1923V25.6695H71.9135V21.1923C71.9135 21.1319 71.9063 21.0718 71.892 21.0132H75.618ZM66.3887 20.9487C66.4277 21.0239 66.4481 21.1075 66.4481 21.1923V25.9083H70.6065V21.1923C70.6066 21.1075 70.627 21.0239 70.6659 20.9487L70.7539 20.7744H66.3008L66.3887 20.9487ZM70.3903 21.0132C70.376 21.0718 70.3688 21.1319 70.3689 21.1923V25.6695H66.6857V21.1923C66.6858 21.1319 66.6786 21.0718 66.6643 21.0132H70.3903ZM61.161 20.9487C61.2 21.0239 61.2203 21.1075 61.2204 21.1923V25.9083H65.3788V21.1923C65.3789 21.1075 65.3992 21.0239 65.4382 20.9487L65.5262 20.7744H61.073L61.161 20.9487ZM65.1626 21.0132C65.1483 21.0718 65.1411 21.1319 65.1412 21.1923V25.6695H61.458V21.1923C61.4581 21.1319 61.4509 21.0718 61.4366 21.0132H65.1626ZM55.9333 20.9487C55.9722 21.0239 55.9926 21.1075 55.9927 21.1923V25.9083H60.1511V21.1923C60.1511 21.1075 60.1715 21.0239 60.2105 20.9487L60.2984 20.7744H55.8453L55.9333 20.9487ZM59.9349 21.0132C59.9206 21.0718 59.9134 21.1319 59.9135 21.1923V25.6695H56.2303V21.1923C56.2304 21.1319 56.2232 21.0718 56.2089 21.0132H59.9349ZM50.7055 20.9487C50.7445 21.0239 50.7649 21.1075 50.7649 21.1923V25.9083H54.9234V21.1923C54.9234 21.1075 54.9438 21.0239 54.9828 20.9487L55.0707 20.7744H50.6176L50.7055 20.9487ZM54.7071 21.0132C54.6929 21.0718 54.6857 21.1319 54.6857 21.1923V25.6695H51.0026V21.1923C51.0026 21.1319 50.9954 21.0718 50.9812 21.0132H54.7071ZM45.4778 20.9487C45.5168 21.0239 45.5372 21.1075 45.5372 21.1923V25.9083H49.6956V21.1923C49.6957 21.1075 49.7161 21.0239 49.755 20.9487L49.843 20.7744H45.3899L45.4778 20.9487ZM49.4794 21.0132C49.4651 21.0718 49.4579 21.1319 49.458 21.1923V25.6695H45.7748V21.1923C45.7749 21.1319 45.7677 21.0718 45.7534 21.0132H49.4794ZM40.2501 20.9487C40.2891 21.0239 40.3094 21.1075 40.3095 21.1923V25.9083H44.4679V21.1923C44.468 21.1075 44.4883 21.0239 44.5273 20.9487L44.6153 20.7744H40.1621L40.2501 20.9487ZM44.2517 21.0132C44.2374 21.0718 44.2302 21.1319 44.2303 21.1923V25.6695H40.5471V21.1923C40.5472 21.1319 40.54 21.0718 40.5257 21.0132H44.2517ZM35.0224 20.9487C35.0613 21.0239 35.0817 21.1075 35.0818 21.1923V25.9083H39.2402V21.1923C39.2402 21.1075 39.2606 21.0239 39.2996 20.9487L39.3875 20.7744H34.9344L35.0224 20.9487ZM39.024 21.0132C39.0097 21.0718 39.0025 21.1319 39.0026 21.1923V25.6695H35.3194V21.1923C35.3195 21.1319 35.3123 21.0718 35.298 21.0132H39.024ZM76.8441 20.9487C76.8831 21.0239 76.9035 21.1075 76.9036 21.1923V25.9083H81.062V21.1923C81.062 21.1075 81.0824 21.0239 81.1214 20.9487L81.2093 20.7744H76.7562L76.8441 20.9487ZM80.8458 21.0132C80.8315 21.0718 80.8243 21.1319 80.8243 21.1923V25.6695H77.1412V21.1923C77.1412 21.1319 77.1341 21.0718 77.1198 21.0132H80.8458ZM71.6164 20.9487C71.6554 21.0239 71.6758 21.1075 71.6758 21.1923V25.9083H75.8342V21.1923C75.8343 21.1075 75.8547 21.0239 75.8937 20.9487L75.9816 20.7744H71.5285L71.6164 20.9487ZM75.618 21.0132C75.6037 21.0718 75.5966 21.1319 75.5966 21.1923V25.6695H71.9135V21.1923C71.9135 21.1319 71.9063 21.0718 71.892 21.0132H75.618ZM66.3887 20.9487C66.4277 21.0239 66.4481 21.1075 66.4481 21.1923V25.9083H70.6065V21.1923C70.6066 21.1075 70.627 21.0239 70.6659 20.9487L70.7539 20.7744H66.3008L66.3887 20.9487ZM70.3903 21.0132C70.376 21.0718 70.3688 21.1319 70.3689 21.1923V25.6695H66.6857V21.1923C66.6858 21.1319 66.6786 21.0718 66.6643 21.0132H70.3903ZM61.161 20.9487C61.2 21.0239 61.2203 21.1075 61.2204 21.1923V25.9083H65.3788V21.1923C65.3789 21.1075 65.3992 21.0239 65.4382 20.9487L65.5262 20.7744H61.073L61.161 20.9487ZM65.1626 21.0132C65.1483 21.0718 65.1411 21.1319 65.1412 21.1923V25.6695H61.458V21.1923C61.4581 21.1319 61.4509 21.0718 61.4366 21.0132H65.1626ZM55.9333 20.9487C55.9722 21.0239 55.9926 21.1075 55.9927 21.1923V25.9083H60.1511V21.1923C60.1511 21.1075 60.1715 21.0239 60.2105 20.9487L60.2984 20.7744H55.8453L55.9333 20.9487ZM59.9349 21.0132C59.9206 21.0718 59.9134 21.1319 59.9135 21.1923V25.6695H56.2303V21.1923C56.2304 21.1319 56.2232 21.0718 56.2089 21.0132H59.9349ZM50.7055 20.9487C50.7445 21.0239 50.7649 21.1075 50.7649 21.1923V25.9083H54.9234V21.1923C54.9234 21.1075 54.9438 21.0239 54.9828 20.9487L55.0707 20.7744H50.6176L50.7055 20.9487ZM54.7071 21.0132C54.6929 21.0718 54.6857 21.1319 54.6857 21.1923V25.6695H51.0026V21.1923C51.0026 21.1319 50.9954 21.0718 50.9812 21.0132H54.7071ZM45.4778 20.9487C45.5168 21.0239 45.5372 21.1075 45.5372 21.1923V25.9083H49.6956V21.1923C49.6957 21.1075 49.7161 21.0239 49.755 20.9487L49.843 20.7744H45.3899L45.4778 20.9487ZM49.4794 21.0132C49.4651 21.0718 49.4579 21.1319 49.458 21.1923V25.6695H45.7748V21.1923C45.7749 21.1319 45.7677 21.0718 45.7534 21.0132H49.4794ZM40.2501 20.9487C40.2891 21.0239 40.3094 21.1075 40.3095 21.1923V25.9083H44.4679V21.1923C44.468 21.1075 44.4883 21.0239 44.5273 20.9487L44.6153 20.7744H40.1621L40.2501 20.9487ZM44.2517 21.0132C44.2374 21.0718 44.2302 21.1319 44.2303 21.1923V25.6695H40.5471V21.1923C40.5472 21.1319 40.54 21.0718 40.5257 21.0132H44.2517ZM35.0224 20.9487C35.0613 21.0239 35.0817 21.1075 35.0818 21.1923V25.9083H39.2402V21.1923C39.2402 21.1075 39.2606 21.0239 39.2996 20.9487L39.3875 20.7744H34.9344L35.0224 20.9487ZM39.024 21.0132C39.0097 21.0718 39.0025 21.1319 39.0026 21.1923V25.6695H35.3194V21.1923C35.3195 21.1319 35.3123 21.0718 35.298 21.0132H39.024ZM85.8144 26.6246H84.3982C84.3201 26.35 84.1553 26.1083 83.9285 25.936C83.7018 25.7637 83.4254 25.6702 83.1412 25.6695H82.3689V21.1923C82.3692 21.0961 82.3511 21.0009 82.3154 20.9117C82.45 20.832 82.5548 20.71 82.6136 20.5646C82.6724 20.4191 82.6819 20.2583 82.6407 20.1069C82.5995 19.9554 82.5098 19.8218 82.3855 19.7267C82.2613 19.6316 82.1093 19.5802 81.9531 19.5804H34.1907C34.0344 19.5802 33.8825 19.6316 33.7582 19.7267C33.6339 19.8218 33.5442 19.9554 33.503 20.1068C33.4618 20.2583 33.4713 20.4191 33.5301 20.5646C33.5889 20.71 33.6937 20.832 33.8283 20.9117C33.7927 21.0009 33.7745 21.0961 33.7748 21.1923V25.6695H33.0026C32.7183 25.6702 32.442 25.7637 32.2152 25.936C31.9885 26.1083 31.8236 26.35 31.7455 26.6246H30.2105C29.927 26.6251 29.6553 26.7384 29.4548 26.9398C29.2544 27.1413 29.1416 27.4143 29.1412 27.6992V90.7388C29.1418 91.0236 29.2546 91.2965 29.455 91.4979C29.6554 91.6993 29.9271 91.8127 30.2105 91.8133H85.8144C86.0979 91.8129 86.3697 91.6995 86.5701 91.4981C86.7705 91.2967 86.8833 91.0236 86.8838 90.7388V27.6992C86.8833 27.4143 86.7705 27.1413 86.5701 26.9398C86.3696 26.7384 86.0979 26.6251 85.8144 26.6246ZM86.6461 90.7388C86.6459 90.9094 86.5938 91.0759 86.4968 91.2159C86.3997 91.3559 86.2624 91.4627 86.1032 91.522C86.011 91.5573 85.9131 91.5751 85.8144 91.5745H30.2105C30.1118 91.5751 30.0139 91.5573 29.9218 91.522C29.7626 91.4627 29.6252 91.3559 29.5282 91.2159C29.4311 91.0759 29.379 90.9094 29.3788 90.7388V27.6992C29.379 27.4776 29.4667 27.2652 29.6227 27.1085C29.7786 26.9518 29.99 26.8637 30.2105 26.8634H31.9356L31.9547 26.7679C32.0046 26.5255 32.136 26.3078 32.3268 26.1513C32.5177 25.9947 32.7562 25.9089 33.0026 25.9083H34.0125V21.1923C34.0125 21.0951 34.0388 20.9998 34.0885 20.9165L34.1621 20.7935L34.0279 20.7433C33.923 20.7051 33.8348 20.6309 33.779 20.5338C33.7232 20.4367 33.7032 20.3229 33.7227 20.2125C33.7421 20.1021 33.7997 20.0021 33.8853 19.9302C33.971 19.8582 34.0791 19.8189 34.1907 19.8192H81.953C82.0646 19.8189 82.1728 19.8582 82.2584 19.9302C82.344 20.0021 82.4016 20.1021 82.421 20.2125C82.4405 20.3229 82.4206 20.4367 82.3647 20.5338C82.3089 20.6309 82.2208 20.7051 82.1158 20.7433L81.9816 20.7935L82.0552 20.9165C82.105 20.9998 82.1313 21.0951 82.1313 21.1923V25.9083H83.1412C83.3875 25.9089 83.6261 25.9947 83.8169 26.1513C84.0077 26.3078 84.1391 26.5255 84.1891 26.7679L84.2081 26.8634H85.8144C86.0349 26.8637 86.2463 26.9518 86.4023 27.1085C86.5582 27.2652 86.6459 27.4776 86.6461 27.6992L86.6461 90.7388ZM34.9344 20.7744L35.0224 20.9487C35.0613 21.0239 35.0817 21.1075 35.0818 21.1923V25.9083H39.2402V21.1923C39.2402 21.1075 39.2606 21.0239 39.2996 20.9487L39.3875 20.7744H34.9344ZM39.0026 21.1923V25.6695H35.3194V21.1923C35.3195 21.1319 35.3123 21.0718 35.298 21.0132H39.024C39.0097 21.0718 39.0025 21.1319 39.0026 21.1923ZM40.1621 20.7744L40.2501 20.9487C40.2891 21.0239 40.3094 21.1075 40.3095 21.1923V25.9083H44.4679V21.1923C44.468 21.1075 44.4883 21.0239 44.5273 20.9487L44.6153 20.7744H40.1621ZM44.2303 21.1923V25.6695H40.5471V21.1923C40.5472 21.1319 40.54 21.0718 40.5257 21.0132H44.2517C44.2374 21.0718 44.2302 21.1319 44.2303 21.1923ZM45.3899 20.7744L45.4778 20.9487C45.5168 21.0239 45.5372 21.1075 45.5372 21.1923V25.9083H49.6956V21.1923C49.6957 21.1075 49.7161 21.0239 49.755 20.9487L49.843 20.7744H45.3899ZM49.458 21.1923V25.6695H45.7748V21.1923C45.7749 21.1319 45.7677 21.0718 45.7534 21.0132H49.4794C49.4651 21.0718 49.4579 21.1319 49.458 21.1923ZM50.6176 20.7744L50.7055 20.9487C50.7445 21.0239 50.7649 21.1075 50.7649 21.1923V25.9083H54.9234V21.1923C54.9234 21.1075 54.9438 21.0239 54.9828 20.9487L55.0707 20.7744H50.6176ZM54.6857 21.1923V25.6695H51.0026V21.1923C51.0026 21.1319 50.9954 21.0718 50.9812 21.0132H54.7071C54.6929 21.0718 54.6857 21.1319 54.6857 21.1923ZM55.8453 20.7744L55.9333 20.9487C55.9722 21.0239 55.9926 21.1075 55.9927 21.1923V25.9083H60.1511V21.1923C60.1511 21.1075 60.1715 21.0239 60.2105 20.9487L60.2984 20.7744H55.8453ZM59.9135 21.1923V25.6695H56.2303V21.1923C56.2304 21.1319 56.2232 21.0718 56.2089 21.0132H59.9349C59.9206 21.0718 59.9134 21.1319 59.9135 21.1923ZM61.073 20.7744L61.161 20.9487C61.2 21.0239 61.2203 21.1075 61.2204 21.1923V25.9083H65.3788V21.1923C65.3789 21.1075 65.3992 21.0239 65.4382 20.9487L65.5262 20.7744H61.073ZM65.1412 21.1923V25.6695H61.458V21.1923C61.4581 21.1319 61.4509 21.0718 61.4366 21.0132H65.1626C65.1483 21.0718 65.1411 21.1319 65.1412 21.1923ZM66.3008 20.7744L66.3887 20.9487C66.4277 21.0239 66.4481 21.1075 66.4481 21.1923V25.9083H70.6065V21.1923C70.6066 21.1075 70.627 21.0239 70.6659 20.9487L70.7539 20.7744H66.3008ZM70.3689 21.1923V25.6695H66.6857V21.1923C66.6858 21.1319 66.6786 21.0718 66.6643 21.0132H70.3903C70.376 21.0718 70.3688 21.1319 70.3689 21.1923ZM71.5285 20.7744L71.6164 20.9487C71.6554 21.0239 71.6758 21.1075 71.6758 21.1923V25.9083H75.8342V21.1923C75.8343 21.1075 75.8547 21.0239 75.8937 20.9487L75.9816 20.7744H71.5285ZM75.5966 21.1923V25.6695H71.9135V21.1923C71.9135 21.1319 71.9063 21.0718 71.892 21.0132H75.618C75.6037 21.0718 75.5966 21.1319 75.5966 21.1923ZM76.7562 20.7744L76.8441 20.9487C76.8831 21.0239 76.9035 21.1075 76.9036 21.1923V25.9083H81.062V21.1923C81.062 21.1075 81.0824 21.0239 81.1214 20.9487L81.2093 20.7744H76.7562ZM80.8243 21.1923V25.6695H77.1412V21.1923C77.1412 21.1319 77.1341 21.0718 77.1198 21.0132H80.8458C80.8315 21.0718 80.8243 21.1319 80.8243 21.1923ZM34.9344 20.7744L35.0224 20.9487C35.0613 21.0239 35.0817 21.1075 35.0818 21.1923V25.9083H39.2402V21.1923C39.2402 21.1075 39.2606 21.0239 39.2996 20.9487L39.3875 20.7744H34.9344ZM39.0026 21.1923V25.6695H35.3194V21.1923C35.3195 21.1319 35.3123 21.0718 35.298 21.0132H39.024C39.0097 21.0718 39.0025 21.1319 39.0026 21.1923ZM40.1621 20.7744L40.2501 20.9487C40.2891 21.0239 40.3094 21.1075 40.3095 21.1923V25.9083H44.4679V21.1923C44.468 21.1075 44.4883 21.0239 44.5273 20.9487L44.6153 20.7744H40.1621ZM44.2303 21.1923V25.6695H40.5471V21.1923C40.5472 21.1319 40.54 21.0718 40.5257 21.0132H44.2517C44.2374 21.0718 44.2302 21.1319 44.2303 21.1923ZM45.3899 20.7744L45.4778 20.9487C45.5168 21.0239 45.5372 21.1075 45.5372 21.1923V25.9083H49.6956V21.1923C49.6957 21.1075 49.7161 21.0239 49.755 20.9487L49.843 20.7744H45.3899ZM49.458 21.1923V25.6695H45.7748V21.1923C45.7749 21.1319 45.7677 21.0718 45.7534 21.0132H49.4794C49.4651 21.0718 49.4579 21.1319 49.458 21.1923ZM50.6176 20.7744L50.7055 20.9487C50.7445 21.0239 50.7649 21.1075 50.7649 21.1923V25.9083H54.9234V21.1923C54.9234 21.1075 54.9438 21.0239 54.9828 20.9487L55.0707 20.7744H50.6176ZM54.6857 21.1923V25.6695H51.0026V21.1923C51.0026 21.1319 50.9954 21.0718 50.9812 21.0132H54.7071C54.6929 21.0718 54.6857 21.1319 54.6857 21.1923ZM55.8453 20.7744L55.9333 20.9487C55.9722 21.0239 55.9926 21.1075 55.9927 21.1923V25.9083H60.1511V21.1923C60.1511 21.1075 60.1715 21.0239 60.2105 20.9487L60.2984 20.7744H55.8453ZM59.9135 21.1923V25.6695H56.2303V21.1923C56.2304 21.1319 56.2232 21.0718 56.2089 21.0132H59.9349C59.9206 21.0718 59.9134 21.1319 59.9135 21.1923ZM61.073 20.7744L61.161 20.9487C61.2 21.0239 61.2203 21.1075 61.2204 21.1923V25.9083H65.3788V21.1923C65.3789 21.1075 65.3992 21.0239 65.4382 20.9487L65.5262 20.7744H61.073ZM65.1412 21.1923V25.6695H61.458V21.1923C61.4581 21.1319 61.4509 21.0718 61.4366 21.0132H65.1626C65.1483 21.0718 65.1411 21.1319 65.1412 21.1923ZM66.3008 20.7744L66.3887 20.9487C66.4277 21.0239 66.4481 21.1075 66.4481 21.1923V25.9083H70.6065V21.1923C70.6066 21.1075 70.627 21.0239 70.6659 20.9487L70.7539 20.7744H66.3008ZM70.3689 21.1923V25.6695H66.6857V21.1923C66.6858 21.1319 66.6786 21.0718 66.6643 21.0132H70.3903C70.376 21.0718 70.3688 21.1319 70.3689 21.1923ZM71.5285 20.7744L71.6164 20.9487C71.6554 21.0239 71.6758 21.1075 71.6758 21.1923V25.9083H75.8342V21.1923C75.8343 21.1075 75.8547 21.0239 75.8937 20.9487L75.9816 20.7744H71.5285ZM75.5966 21.1923V25.6695H71.9135V21.1923C71.9135 21.1319 71.9063 21.0718 71.892 21.0132H75.618C75.6037 21.0718 75.5966 21.1319 75.5966 21.1923ZM76.7562 20.7744L76.8441 20.9487C76.8831 21.0239 76.9035 21.1075 76.9036 21.1923V25.9083H81.062V21.1923C81.062 21.1075 81.0824 21.0239 81.1214 20.9487L81.2093 20.7744H76.7562ZM80.8243 21.1923V25.6695H77.1412V21.1923C77.1412 21.1319 77.1341 21.0718 77.1198 21.0132H80.8458C80.8315 21.0718 80.8243 21.1319 80.8243 21.1923ZM34.9344 20.7744L35.0224 20.9487C35.0613 21.0239 35.0817 21.1075 35.0818 21.1923V25.9083H39.2402V21.1923C39.2402 21.1075 39.2606 21.0239 39.2996 20.9487L39.3875 20.7744H34.9344ZM39.0026 21.1923V25.6695H35.3194V21.1923C35.3195 21.1319 35.3123 21.0718 35.298 21.0132H39.024C39.0097 21.0718 39.0025 21.1319 39.0026 21.1923ZM40.1621 20.7744L40.2501 20.9487C40.2891 21.0239 40.3094 21.1075 40.3095 21.1923V25.9083H44.4679V21.1923C44.468 21.1075 44.4883 21.0239 44.5273 20.9487L44.6153 20.7744H40.1621ZM44.2303 21.1923V25.6695H40.5471V21.1923C40.5472 21.1319 40.54 21.0718 40.5257 21.0132H44.2517C44.2374 21.0718 44.2302 21.1319 44.2303 21.1923ZM45.3899 20.7744L45.4778 20.9487C45.5168 21.0239 45.5372 21.1075 45.5372 21.1923V25.9083H49.6956V21.1923C49.6957 21.1075 49.7161 21.0239 49.755 20.9487L49.843 20.7744H45.3899ZM49.458 21.1923V25.6695H45.7748V21.1923C45.7749 21.1319 45.7677 21.0718 45.7534 21.0132H49.4794C49.4651 21.0718 49.4579 21.1319 49.458 21.1923ZM50.6176 20.7744L50.7055 20.9487C50.7445 21.0239 50.7649 21.1075 50.7649 21.1923V25.9083H54.9234V21.1923C54.9234 21.1075 54.9438 21.0239 54.9828 20.9487L55.0707 20.7744H50.6176ZM54.6857 21.1923V25.6695H51.0026V21.1923C51.0026 21.1319 50.9954 21.0718 50.9812 21.0132H54.7071C54.6929 21.0718 54.6857 21.1319 54.6857 21.1923ZM55.8453 20.7744L55.9333 20.9487C55.9722 21.0239 55.9926 21.1075 55.9927 21.1923V25.9083H60.1511V21.1923C60.1511 21.1075 60.1715 21.0239 60.2105 20.9487L60.2984 20.7744H55.8453ZM59.9135 21.1923V25.6695H56.2303V21.1923C56.2304 21.1319 56.2232 21.0718 56.2089 21.0132H59.9349C59.9206 21.0718 59.9134 21.1319 59.9135 21.1923ZM61.073 20.7744L61.161 20.9487C61.2 21.0239 61.2203 21.1075 61.2204 21.1923V25.9083H65.3788V21.1923C65.3789 21.1075 65.3992 21.0239 65.4382 20.9487L65.5262 20.7744H61.073ZM65.1412 21.1923V25.6695H61.458V21.1923C61.4581 21.1319 61.4509 21.0718 61.4366 21.0132H65.1626C65.1483 21.0718 65.1411 21.1319 65.1412 21.1923ZM66.3008 20.7744L66.3887 20.9487C66.4277 21.0239 66.4481 21.1075 66.4481 21.1923V25.9083H70.6065V21.1923C70.6066 21.1075 70.627 21.0239 70.6659 20.9487L70.7539 20.7744H66.3008ZM70.3689 21.1923V25.6695H66.6857V21.1923C66.6858 21.1319 66.6786 21.0718 66.6643 21.0132H70.3903C70.376 21.0718 70.3688 21.1319 70.3689 21.1923ZM71.5285 20.7744L71.6164 20.9487C71.6554 21.0239 71.6758 21.1075 71.6758 21.1923V25.9083H75.8342V21.1923C75.8343 21.1075 75.8547 21.0239 75.8937 20.9487L75.9816 20.7744H71.5285ZM75.5966 21.1923V25.6695H71.9135V21.1923C71.9135 21.1319 71.9063 21.0718 71.892 21.0132H75.618C75.6037 21.0718 75.5966 21.1319 75.5966 21.1923ZM76.7562 20.7744L76.8441 20.9487C76.8831 21.0239 76.9035 21.1075 76.9036 21.1923V25.9083H81.062V21.1923C81.062 21.1075 81.0824 21.0239 81.1214 20.9487L81.2093 20.7744H76.7562ZM80.8243 21.1923V25.6695H77.1412V21.1923C77.1412 21.1319 77.1341 21.0718 77.1198 21.0132H80.8458C80.8315 21.0718 80.8243 21.1319 80.8243 21.1923ZM34.9344 20.7744L35.0224 20.9487C35.0613 21.0239 35.0817 21.1075 35.0818 21.1923V25.9083H39.2402V21.1923C39.2402 21.1075 39.2606 21.0239 39.2996 20.9487L39.3875 20.7744H34.9344ZM39.0026 21.1923V25.6695H35.3194V21.1923C35.3195 21.1319 35.3123 21.0718 35.298 21.0132H39.024C39.0097 21.0718 39.0025 21.1319 39.0026 21.1923ZM40.1621 20.7744L40.2501 20.9487C40.2891 21.0239 40.3094 21.1075 40.3095 21.1923V25.9083H44.4679V21.1923C44.468 21.1075 44.4883 21.0239 44.5273 20.9487L44.6153 20.7744H40.1621ZM44.2303 21.1923V25.6695H40.5471V21.1923C40.5472 21.1319 40.54 21.0718 40.5257 21.0132H44.2517C44.2374 21.0718 44.2302 21.1319 44.2303 21.1923ZM45.3899 20.7744L45.4778 20.9487C45.5168 21.0239 45.5372 21.1075 45.5372 21.1923V25.9083H49.6956V21.1923C49.6957 21.1075 49.7161 21.0239 49.755 20.9487L49.843 20.7744H45.3899ZM49.458 21.1923V25.6695H45.7748V21.1923C45.7749 21.1319 45.7677 21.0718 45.7534 21.0132H49.4794C49.4651 21.0718 49.4579 21.1319 49.458 21.1923ZM50.6176 20.7744L50.7055 20.9487C50.7445 21.0239 50.7649 21.1075 50.7649 21.1923V25.9083H54.9234V21.1923C54.9234 21.1075 54.9438 21.0239 54.9828 20.9487L55.0707 20.7744H50.6176ZM54.6857 21.1923V25.6695H51.0026V21.1923C51.0026 21.1319 50.9954 21.0718 50.9812 21.0132H54.7071C54.6929 21.0718 54.6857 21.1319 54.6857 21.1923ZM55.8453 20.7744L55.9333 20.9487C55.9722 21.0239 55.9926 21.1075 55.9927 21.1923V25.9083H60.1511V21.1923C60.1511 21.1075 60.1715 21.0239 60.2105 20.9487L60.2984 20.7744H55.8453ZM59.9135 21.1923V25.6695H56.2303V21.1923C56.2304 21.1319 56.2232 21.0718 56.2089 21.0132H59.9349C59.9206 21.0718 59.9134 21.1319 59.9135 21.1923ZM61.073 20.7744L61.161 20.9487C61.2 21.0239 61.2203 21.1075 61.2204 21.1923V25.9083H65.3788V21.1923C65.3789 21.1075 65.3992 21.0239 65.4382 20.9487L65.5262 20.7744H61.073ZM65.1412 21.1923V25.6695H61.458V21.1923C61.4581 21.1319 61.4509 21.0718 61.4366 21.0132H65.1626C65.1483 21.0718 65.1411 21.1319 65.1412 21.1923ZM66.3008 20.7744L66.3887 20.9487C66.4277 21.0239 66.4481 21.1075 66.4481 21.1923V25.9083H70.6065V21.1923C70.6066 21.1075 70.627 21.0239 70.6659 20.9487L70.7539 20.7744H66.3008ZM70.3689 21.1923V25.6695H66.6857V21.1923C66.6858 21.1319 66.6786 21.0718 66.6643 21.0132H70.3903C70.376 21.0718 70.3688 21.1319 70.3689 21.1923ZM71.5285 20.7744L71.6164 20.9487C71.6554 21.0239 71.6758 21.1075 71.6758 21.1923V25.9083H75.8342V21.1923C75.8343 21.1075 75.8547 21.0239 75.8937 20.9487L75.9816 20.7744H71.5285ZM75.5966 21.1923V25.6695H71.9135V21.1923C71.9135 21.1319 71.9063 21.0718 71.892 21.0132H75.618C75.6037 21.0718 75.5966 21.1319 75.5966 21.1923ZM76.7562 20.7744L76.8441 20.9487C76.8831 21.0239 76.9035 21.1075 76.9036 21.1923V25.9083H81.062V21.1923C81.062 21.1075 81.0824 21.0239 81.1214 20.9487L81.2093 20.7744H76.7562ZM80.8243 21.1923V25.6695H77.1412V21.1923C77.1412 21.1319 77.1341 21.0718 77.1198 21.0132H80.8458C80.8315 21.0718 80.8243 21.1319 80.8243 21.1923Z" fill="#3F3D56"/>
<path d="M49.0602 41.6682H40.2987C40.1141 41.6679 39.9372 41.5942 39.8067 41.4631C39.6763 41.3319 39.6029 41.1542 39.6027 40.9687V36.2785C39.6029 36.0931 39.6763 35.9153 39.8067 35.7842C39.9372 35.6531 40.1141 35.5793 40.2987 35.5791H49.0602C49.2448 35.5793 49.4217 35.6531 49.5522 35.7842C49.6827 35.9153 49.7561 36.0931 49.7563 36.2785V40.9687C49.7561 41.1542 49.6827 41.3319 49.5522 41.4631C49.4217 41.5942 49.2448 41.6679 49.0602 41.6682Z" fill="#E9C46A"/>
<path d="M62.3933 41.6682H53.6317C53.4472 41.6679 53.2702 41.5942 53.1398 41.4631C53.0093 41.3319 52.9359 41.1542 52.9357 40.9687V36.2785C52.9359 36.0931 53.0093 35.9153 53.1398 35.7842C53.2702 35.6531 53.4472 35.5793 53.6317 35.5791H62.3933C62.5778 35.5793 62.7547 35.6531 62.8852 35.7842C63.0157 35.9153 63.0891 36.0931 63.0893 36.2785V40.9687C63.0891 41.1542 63.0157 41.3319 62.8852 41.4631C62.7547 41.5942 62.5778 41.6679 62.3933 41.6682Z" fill="#E9C46A"/>
<path d="M75.7263 41.6682H66.9647C66.7802 41.6679 66.6032 41.5942 66.4728 41.4631C66.3423 41.3319 66.2689 41.1542 66.2687 40.9687V36.2785C66.2689 36.0931 66.3423 35.9153 66.4728 35.7842C66.6032 35.6531 66.7802 35.5793 66.9647 35.5791H75.7263C75.9108 35.5793 76.0877 35.6531 76.2182 35.7842C76.3487 35.9153 76.4221 36.0931 76.4223 36.2785V40.9687C76.4221 41.1542 76.3487 41.3319 76.2182 41.4631C76.0877 41.5942 75.9108 41.6679 75.7263 41.6682Z" fill="#E9C46A"/>
<path d="M49.0602 57.3087H40.2987C40.1141 57.3084 39.9372 57.2347 39.8067 57.1036C39.6763 56.9725 39.6029 56.7947 39.6027 56.6092V51.919C39.6029 51.7336 39.6763 51.5558 39.8067 51.4247C39.9372 51.2936 40.1141 51.2198 40.2987 51.2196H49.0602C49.2448 51.2198 49.4217 51.2936 49.5522 51.4247C49.6827 51.5558 49.7561 51.7336 49.7563 51.919V56.6092C49.7561 56.7947 49.6827 56.9725 49.5522 57.1036C49.4217 57.2347 49.2448 57.3084 49.0602 57.3087Z" fill="#E9C46A"/>
<path d="M62.3933 57.3087H53.6317C53.4472 57.3084 53.2702 57.2347 53.1398 57.1036C53.0093 56.9725 52.9359 56.7947 52.9357 56.6092V51.919C52.9359 51.7336 53.0093 51.5558 53.1398 51.4247C53.2702 51.2936 53.4472 51.2198 53.6317 51.2196H62.3933C62.5778 51.2198 62.7547 51.2936 62.8852 51.4247C63.0157 51.5558 63.0891 51.7336 63.0893 51.919V56.6092C63.0891 56.7947 63.0157 56.9725 62.8852 57.1036C62.7547 57.2347 62.5778 57.3084 62.3933 57.3087Z" fill="#E9C46A"/>
<path d="M75.7263 57.3087H66.9647C66.7802 57.3084 66.6032 57.2347 66.4728 57.1036C66.3423 56.9725 66.2689 56.7947 66.2687 56.6092V51.919C66.2689 51.7336 66.3423 51.5558 66.4728 51.4247C66.6032 51.2936 66.7802 51.2198 66.9647 51.2196H75.7263C75.9108 51.2198 76.0877 51.2936 76.2182 51.4247C76.3487 51.5558 76.4221 51.7336 76.4223 51.919V56.6092C76.4221 56.7947 76.3487 56.9725 76.2182 57.1036C76.0877 57.2347 75.9108 57.3084 75.7263 57.3087Z" fill="#E9C46A"/>
<path d="M49.0602 72.9492H40.2987C40.1141 72.9489 39.9372 72.8752 39.8067 72.7441C39.6763 72.613 39.6029 72.4352 39.6027 72.2497V67.5595C39.6029 67.3741 39.6763 67.1963 39.8067 67.0652C39.9372 66.9341 40.1141 66.8603 40.2987 66.8601H49.0602C49.2448 66.8603 49.4217 66.9341 49.5522 67.0652C49.6827 67.1963 49.7561 67.3741 49.7563 67.5595V72.2497C49.7561 72.4352 49.6827 72.613 49.5522 72.7441C49.4217 72.8752 49.2448 72.949 49.0602 72.9492Z" fill="#E9C46A"/>
<path d="M62.3933 72.9492H53.6317C53.4472 72.9489 53.2702 72.8752 53.1398 72.7441C53.0093 72.613 52.9359 72.4352 52.9357 72.2497V67.5595C52.9359 67.3741 53.0093 67.1963 53.1398 67.0652C53.2702 66.9341 53.4472 66.8603 53.6317 66.8601H62.3933C62.5778 66.8603 62.7547 66.9341 62.8852 67.0652C63.0157 67.1963 63.0891 67.3741 63.0893 67.5595V72.2497C63.0891 72.4352 63.0157 72.613 62.8852 72.7441C62.7547 72.8752 62.5778 72.949 62.3933 72.9492Z" fill="#E9C46A"/>
<path d="M75.7263 72.9492H66.9647C66.7802 72.9489 66.6032 72.8752 66.4728 72.7441C66.3423 72.613 66.2689 72.4352 66.2687 72.2497V67.5595C66.2689 67.3741 66.3423 67.1963 66.4728 67.0652C66.6032 66.9341 66.7802 66.8603 66.9647 66.8601H75.7263C75.9108 66.8603 76.0877 66.9341 76.2182 67.0652C76.3487 67.1963 76.4221 67.3741 76.4223 67.5595V72.2497C76.4221 72.4352 76.3487 72.613 76.2182 72.7441C76.0877 72.8752 75.9108 72.949 75.7263 72.9492Z" fill="#E9C46A"/>
<path d="M47.6418 42.27H37.4921C37.2468 42.2697 37.0116 42.1716 36.8382 41.9973C36.6648 41.8231 36.5672 41.5868 36.567 41.3403V35.907C36.5672 35.6605 36.6648 35.4242 36.8382 35.2499C37.0116 35.0756 37.2468 34.9776 37.4921 34.9773H47.6418C47.8871 34.9776 48.1223 35.0756 48.2957 35.2499C48.4691 35.4242 48.5667 35.6605 48.567 35.907V41.3403C48.5667 41.5868 48.4691 41.8231 48.2957 41.9973C48.1223 42.1716 47.8871 42.2697 47.6418 42.27ZM37.4921 35.2161C37.3098 35.2163 37.135 35.2892 37.0062 35.4187C36.8773 35.5482 36.8048 35.7238 36.8046 35.907V41.3403C36.8048 41.5234 36.8773 41.6991 37.0062 41.8286C37.135 41.9581 37.3098 42.031 37.4921 42.0312H47.6418C47.8241 42.031 47.9989 41.9581 48.1278 41.8286C48.2566 41.6991 48.3291 41.5235 48.3293 41.3403V35.907C48.3291 35.7238 48.2566 35.5482 48.1278 35.4187C47.9989 35.2891 47.8241 35.2163 47.6418 35.2161H37.4921Z" fill="#3F3D56"/>
<path d="M63.0873 42.27H52.9376C52.6923 42.2697 52.4571 42.1716 52.2837 41.9973C52.1103 41.8231 52.0127 41.5868 52.0125 41.3403V35.907C52.0127 35.6605 52.1103 35.4242 52.2837 35.2499C52.4571 35.0756 52.6923 34.9776 52.9376 34.9773H63.0873C63.3326 34.9776 63.5678 35.0756 63.7412 35.2499C63.9146 35.4242 64.0122 35.6605 64.0125 35.907V41.3403C64.0122 41.5868 63.9146 41.8231 63.7412 41.9973C63.5678 42.1716 63.3326 42.2697 63.0873 42.27ZM52.9376 35.2161C52.7553 35.2163 52.5805 35.2891 52.4517 35.4187C52.3228 35.5482 52.2503 35.7238 52.2501 35.907V41.3403C52.2503 41.5235 52.3228 41.6991 52.4517 41.8286C52.5805 41.9581 52.7553 42.031 52.9376 42.0312H63.0873C63.2696 42.031 63.4444 41.9581 63.5733 41.8286C63.7021 41.6991 63.7746 41.5235 63.7748 41.3403V35.907C63.7746 35.7238 63.7021 35.5482 63.5733 35.4187C63.4444 35.2891 63.2696 35.2163 63.0873 35.2161H52.9376Z" fill="#3F3D56"/>
<path d="M78.5329 42.27H68.3831C68.1378 42.2697 67.9027 42.1716 67.7293 41.9973C67.5558 41.8231 67.4583 41.5868 67.458 41.3403V35.907C67.4583 35.6605 67.5558 35.4242 67.7293 35.2499C67.9027 35.0756 68.1378 34.9776 68.3831 34.9773H78.5329C78.7782 34.9776 79.0133 35.0756 79.1868 35.2499C79.3602 35.4242 79.4577 35.6605 79.458 35.907V41.3403C79.4577 41.5868 79.3602 41.8231 79.1868 41.9973C79.0133 42.1716 78.7782 42.2697 78.5329 42.27ZM68.3831 35.2161C68.2008 35.2163 68.0261 35.2891 67.8972 35.4187C67.7683 35.5482 67.6958 35.7238 67.6956 35.907V41.3403C67.6958 41.5235 67.7683 41.6991 67.8972 41.8286C68.0261 41.9581 68.2008 42.031 68.3831 42.0312H78.5329C78.7152 42.031 78.8899 41.9581 79.0188 41.8286C79.1477 41.6991 79.2202 41.5235 79.2204 41.3403V35.907C79.2202 35.7238 79.1477 35.5482 79.0188 35.4187C78.8899 35.2891 78.7152 35.2163 78.5329 35.2161H68.3831Z" fill="#3F3D56"/>
<path d="M47.6418 57.9106H37.4921C37.2468 57.9103 37.0116 57.8123 36.8382 57.638C36.6648 57.4637 36.5672 57.2274 36.567 56.9809V51.5476C36.5672 51.3011 36.6648 51.0648 36.8382 50.8905C37.0116 50.7162 37.2468 50.6182 37.4921 50.6179H47.6418C47.8871 50.6182 48.1223 50.7162 48.2957 50.8905C48.4691 51.0648 48.5667 51.3011 48.567 51.5476V56.9809C48.5667 57.2274 48.4691 57.4637 48.2957 57.638C48.1223 57.8123 47.8871 57.9103 47.6418 57.9106ZM37.4921 50.8567C37.3098 50.8569 37.135 50.9298 37.0062 51.0593C36.8773 51.1888 36.8048 51.3644 36.8046 51.5476V56.9809C36.8048 57.1641 36.8773 57.3397 37.0062 57.4692C37.135 57.5987 37.3098 57.6716 37.4921 57.6718H47.6418C47.8241 57.6716 47.9989 57.5987 48.1278 57.4692C48.2566 57.3397 48.3291 57.1641 48.3293 56.9809V51.5476C48.3291 51.3644 48.2566 51.1888 48.1278 51.0593C47.9989 50.9298 47.8241 50.8569 47.6418 50.8567H37.4921Z" fill="#3F3D56"/>
<path d="M63.0873 57.9106H52.9376C52.6923 57.9103 52.4571 57.8123 52.2837 57.638C52.1103 57.4637 52.0127 57.2274 52.0125 56.9809V51.5476C52.0127 51.3011 52.1103 51.0648 52.2837 50.8905C52.4571 50.7162 52.6923 50.6182 52.9376 50.6179H63.0873C63.3326 50.6182 63.5678 50.7162 63.7412 50.8905C63.9146 51.0648 64.0122 51.3011 64.0125 51.5476V56.9809C64.0122 57.2274 63.9146 57.4637 63.7412 57.638C63.5678 57.8123 63.3326 57.9103 63.0873 57.9106ZM52.9376 50.8567C52.7553 50.8569 52.5805 50.9298 52.4517 51.0593C52.3228 51.1888 52.2503 51.3644 52.2501 51.5476V56.9809C52.2503 57.1641 52.3228 57.3397 52.4517 57.4692C52.5805 57.5987 52.7553 57.6716 52.9376 57.6718H63.0873C63.2696 57.6716 63.4444 57.5987 63.5733 57.4692C63.7021 57.3397 63.7746 57.1641 63.7748 56.9809V51.5476C63.7746 51.3644 63.7021 51.1888 63.5733 51.0593C63.4444 50.9298 63.2696 50.8569 63.0873 50.8567H52.9376Z" fill="#3F3D56"/>
<path d="M78.5329 57.9106H68.3831C68.1378 57.9103 67.9027 57.8123 67.7293 57.638C67.5558 57.4637 67.4583 57.2274 67.458 56.9809V51.5476C67.4583 51.3011 67.5558 51.0648 67.7293 50.8905C67.9027 50.7162 68.1378 50.6182 68.3831 50.6179H78.5329C78.7782 50.6182 79.0133 50.7162 79.1868 50.8905C79.3602 51.0648 79.4577 51.3011 79.458 51.5476V56.9809C79.4577 57.2274 79.3602 57.4637 79.1868 57.638C79.0133 57.8123 78.7782 57.9103 78.5329 57.9106ZM68.3831 50.8567C68.2008 50.8569 68.0261 50.9298 67.8972 51.0593C67.7683 51.1888 67.6958 51.3644 67.6956 51.5476V56.9809C67.6958 57.1641 67.7683 57.3397 67.8972 57.4692C68.0261 57.5987 68.2008 57.6716 68.3831 57.6718H78.5329C78.7152 57.6716 78.8899 57.5987 79.0188 57.4692C79.1477 57.3397 79.2202 57.1641 79.2204 56.9809V51.5476C79.2202 51.3644 79.1477 51.1888 79.0188 51.0593C78.8899 50.9298 78.7152 50.8569 78.5329 50.8567H68.3831Z" fill="#3F3D56"/>
<path d="M47.6418 73.551H37.4921C37.2468 73.5507 37.0116 73.4526 36.8382 73.2783C36.6648 73.1041 36.5672 72.8678 36.567 72.6213V67.188C36.5672 66.9415 36.6648 66.7052 36.8382 66.5309C37.0116 66.3566 37.2468 66.2586 37.4921 66.2583H47.6418C47.8871 66.2586 48.1223 66.3566 48.2957 66.5309C48.4691 66.7052 48.5667 66.9415 48.567 67.188V72.6213C48.5667 72.8678 48.4691 73.1041 48.2957 73.2784C48.1223 73.4526 47.8871 73.5507 47.6418 73.551ZM37.4921 66.4971C37.3098 66.4973 37.135 66.5702 37.0062 66.6997C36.8773 66.8292 36.8048 67.0048 36.8046 67.188V72.6213C36.8048 72.8045 36.8773 72.9801 37.0062 73.1096C37.135 73.2391 37.3098 73.312 37.4921 73.3122H47.6418C47.8241 73.312 47.9989 73.2391 48.1278 73.1096C48.2566 72.9801 48.3291 72.8045 48.3293 72.6213V67.188C48.3291 67.0048 48.2566 66.8292 48.1278 66.6997C47.9989 66.5701 47.8241 66.4973 47.6418 66.4971H37.4921Z" fill="#3F3D56"/>
<path d="M63.0873 73.551H52.9376C52.6923 73.5507 52.4571 73.4526 52.2837 73.2784C52.1103 73.1041 52.0127 72.8678 52.0125 72.6213V67.188C52.0127 66.9415 52.1103 66.7052 52.2837 66.5309C52.4571 66.3566 52.6923 66.2586 52.9376 66.2583H63.0873C63.3326 66.2586 63.5678 66.3566 63.7412 66.5309C63.9146 66.7052 64.0122 66.9415 64.0125 67.188V72.6213C64.0122 72.8678 63.9146 73.1041 63.7412 73.2783C63.5678 73.4526 63.3326 73.5507 63.0873 73.551ZM52.9376 66.4971C52.7553 66.4973 52.5805 66.5701 52.4517 66.6997C52.3228 66.8292 52.2503 67.0048 52.2501 67.188V72.6213C52.2503 72.8045 52.3228 72.9801 52.4517 73.1096C52.5805 73.2391 52.7553 73.312 52.9376 73.3122H63.0873C63.2696 73.312 63.4444 73.2391 63.5733 73.1096C63.7021 72.9801 63.7746 72.8045 63.7748 72.6213V67.188C63.7746 67.0048 63.7021 66.8292 63.5733 66.6997C63.4444 66.5701 63.2696 66.4973 63.0873 66.4971H52.9376Z" fill="#3F3D56"/>
<path d="M78.5329 73.551H68.3831C68.1378 73.5507 67.9027 73.4526 67.7293 73.2784C67.5558 73.1041 67.4583 72.8678 67.458 72.6213V67.188C67.4583 66.9415 67.5558 66.7052 67.7293 66.5309C67.9027 66.3566 68.1378 66.2586 68.3831 66.2583H78.5329C78.7782 66.2586 79.0133 66.3566 79.1868 66.5309C79.3602 66.7052 79.4577 66.9415 79.458 67.188V72.6213C79.4577 72.8678 79.3602 73.1041 79.1868 73.2783C79.0133 73.4526 78.7782 73.5507 78.5329 73.551ZM68.3831 66.4971C68.2008 66.4973 68.0261 66.5701 67.8972 66.6997C67.7683 66.8292 67.6958 67.0048 67.6956 67.188V72.6213C67.6958 72.8045 67.7683 72.9801 67.8972 73.1096C68.0261 73.2391 68.2008 73.312 68.3831 73.3122H78.5329C78.7152 73.312 78.8899 73.2391 79.0188 73.1096C79.1477 72.9801 79.2202 72.8045 79.2204 72.6213V67.188C79.2202 67.0048 79.1477 66.8292 79.0188 66.6997C78.8899 66.5701 78.7152 66.4973 78.5329 66.4971H68.3831Z" fill="#3F3D56"/>
<path d="M119.881 91.9924H0.118812C0.087301 91.9924 0.0570807 91.9799 0.0347991 91.9575C0.0125176 91.9351 0 91.9047 0 91.8731C0 91.8414 0.0125176 91.811 0.0347991 91.7886C0.0570807 91.7662 0.087301 91.7537 0.118812 91.7537H119.881C119.913 91.7537 119.943 91.7662 119.965 91.7886C119.987 91.811 120 91.8414 120 91.8731C120 91.9047 119.987 91.9351 119.965 91.9575C119.943 91.9799 119.913 91.9924 119.881 91.9924Z" fill="#3F3D56"/>
<path d="M64.0125 80.4364C64.0157 80.164 63.9112 79.9013 63.7218 79.7063C63.5324 79.5113 63.2737 79.3999 63.0026 79.3965H58.0125V91.7537H64.0125V80.4364Z" fill="#3F3D56"/>
<path d="M58.1313 91.6343H51.8937V80.471C51.894 80.1703 52.013 79.882 52.2246 79.6694C52.4362 79.4567 52.7231 79.3371 53.0224 79.3368H58.1313V91.6343ZM52.1313 91.3955H57.8937V79.5756H53.0224C52.7861 79.5758 52.5596 79.6703 52.3926 79.8381C52.2255 80.006 52.1316 80.2336 52.1313 80.471V91.3955Z" fill="#3F3D56"/>
<path d="M52.6659 86.3212C52.8628 86.3212 53.0224 86.1609 53.0224 85.963C53.0224 85.7652 52.8628 85.6049 52.6659 85.6049C52.4691 85.6049 52.3095 85.7652 52.3095 85.963C52.3095 86.1609 52.4691 86.3212 52.6659 86.3212Z" fill="#3F3D56"/>
</g>
<defs>
<clipPath id="clip0_1_308">
<rect width="120" height="92" fill="white"/>
</clipPath>
</defs>
</svg>
