<svg width="60" height="60" viewBox="0 0 60 60" fill="none" xmlns="http://www.w3.org/2000/svg">
<path fill-rule="evenodd" clip-rule="evenodd" d="M7.5 58.75V25C7.5 22.2388 9.73875 20 12.5 20V15C12.5 13.62 13.62 12.5 15 12.5H17.5V2.5C17.5 1.81 18.0588 1.25 18.75 1.25C19.4412 1.25 20 1.81 20 2.5V12.5H22.5C23.88 12.5 25 13.62 25 15V20C27.7612 20 30 22.2388 30 25V35H38.75V27.5H43.75V23.75H51.25V27.5H52.5V58.75H7.5ZM22.5 16.25C22.5 15.56 21.9412 15 21.25 15H16.25C15.5588 15 15 15.56 15 16.25V20H22.5V16.25ZM27.5 25C27.5 23.62 26.38 22.5 25 22.5H12.5C11.12 22.5 10 23.62 10 25V56.25H27.5V25ZM38.75 37.5H30V56.25H38.75V37.5ZM50 30H41.25V56.25H50V30ZM45 33.75H46.25C46.9412 33.75 47.5 34.3088 47.5 35V36.25C47.5 36.9412 46.9412 37.5 46.25 37.5H45C44.3088 37.5 43.75 36.9412 43.75 36.25V35C43.75 34.3088 44.3088 33.75 45 33.75ZM45 41.25H46.25C46.9412 41.25 47.5 41.8088 47.5 42.5V43.75C47.5 44.4412 46.9412 45 46.25 45H45C44.3088 45 43.75 44.4412 43.75 43.75V42.5C43.75 41.8088 44.3088 41.25 45 41.25ZM45 48.75H46.25C46.9412 48.75 47.5 49.3088 47.5 50V51.25C47.5 51.9412 46.9412 52.5 46.25 52.5H45C44.3088 52.5 43.75 51.9412 43.75 51.25V50C43.75 49.3088 44.3088 48.75 45 48.75ZM33.75 41.25H35C35.6912 41.25 36.25 41.8088 36.25 42.5V43.75C36.25 44.4412 35.6912 45 35 45H33.75C33.0588 45 32.5 44.4412 32.5 43.75V42.5C32.5 41.8088 33.0588 41.25 33.75 41.25ZM33.75 48.75H35C35.6912 48.75 36.25 49.3088 36.25 50V51.25C36.25 51.9412 35.6912 52.5 35 52.5H33.75C33.0588 52.5 32.5 51.9412 32.5 51.25V50C32.5 49.3088 33.0588 48.75 33.75 48.75ZM22.5 52.5H21.25C20.5588 52.5 20 51.9412 20 51.25V50C20 49.31 20.5588 48.75 21.25 48.75H22.5C23.1912 48.75 23.75 49.31 23.75 50V51.25C23.75 51.9412 23.1912 52.5 22.5 52.5ZM22.5 45H21.25C20.5588 45 20 44.4412 20 43.75V42.5C20 41.81 20.5588 41.25 21.25 41.25H22.5C23.1912 41.25 23.75 41.81 23.75 42.5V43.75C23.75 44.4412 23.1912 45 22.5 45ZM22.5 37.5H21.25C20.5588 37.5 20 36.9412 20 36.25V35C20 34.31 20.5588 33.75 21.25 33.75H22.5C23.1912 33.75 23.75 34.31 23.75 35V36.25C23.75 36.9412 23.1912 37.5 22.5 37.5ZM22.5 30H21.25C20.5588 30 20 29.4412 20 28.75V27.5C20 26.81 20.5588 26.25 21.25 26.25H22.5C23.1912 26.25 23.75 26.81 23.75 27.5V28.75C23.75 29.4412 23.1912 30 22.5 30ZM16.25 52.5H15C14.3088 52.5 13.75 51.9412 13.75 51.25V50C13.75 49.3088 14.3088 48.75 15 48.75H16.25C16.9412 48.75 17.5 49.3088 17.5 50V51.25C17.5 51.9412 16.9412 52.5 16.25 52.5ZM16.25 45H15C14.3088 45 13.75 44.4412 13.75 43.75V42.5C13.75 41.8088 14.3088 41.25 15 41.25H16.25C16.9412 41.25 17.5 41.8088 17.5 42.5V43.75C17.5 44.4412 16.9412 45 16.25 45ZM16.25 37.5H15C14.3088 37.5 13.75 36.9412 13.75 36.25V35C13.75 34.31 14.3088 33.75 15 33.75H16.25C16.9412 33.75 17.5 34.31 17.5 35V36.25C17.5 36.9412 16.9412 37.5 16.25 37.5ZM16.25 30H15C14.3088 30 13.75 29.4412 13.75 28.75V27.5C13.75 26.81 14.3088 26.25 15 26.25H16.25C16.9412 26.25 17.5 26.81 17.5 27.5V28.75C17.5 29.4412 16.9412 30 16.25 30Z" fill="white"/>
</svg>
