<svg width="95" height="26" viewBox="0 0 95 26" fill="none" xmlns="http://www.w3.org/2000/svg">
<path d="M16.54 25H0.808V0.987998H16.54V3.652H3.796V11.392H16.288V14.056H3.796V22.336H16.54V25ZM26.7401 25.432C23.8601 25.432 21.4841 24.532 19.7201 22.696L21.0881 20.752C22.2401 22.084 24.4361 23.236 26.8121 23.236C29.4761 23.236 30.9521 21.976 30.9521 20.248C30.9521 16.036 20.1881 18.628 20.1881 12.184C20.1881 9.448 22.4921 7.18 26.6321 7.18C29.6201 7.18 31.7081 8.296 33.0761 9.7L31.8161 11.572C30.7721 10.312 28.9001 9.376 26.6321 9.376C24.2561 9.376 22.7801 10.564 22.7801 12.112C22.7801 15.892 33.5441 13.408 33.5441 20.176C33.5441 23.092 31.2041 25.432 26.7401 25.432ZM42.3585 25.432C39.7665 25.432 38.4705 23.956 38.4705 21.364V9.988H35.5905V7.612H38.4705V2.86H41.2065V7.612H44.7345V9.988H41.2065V20.788C41.2065 22.084 41.7825 23.02 42.9345 23.02C43.7265 23.02 44.4105 22.66 44.7705 22.264L45.5625 24.316C44.8785 24.964 43.9065 25.432 42.3585 25.432ZM62.0845 25H59.3845V23.02C57.9805 24.604 55.9645 25.432 53.6245 25.432C50.7085 25.432 47.5765 23.452 47.5765 19.672C47.5765 15.748 50.6725 13.948 53.6245 13.948C56.0005 13.948 57.9805 14.704 59.3845 16.288V13.156C59.3845 10.852 57.5125 9.52 54.9925 9.52C52.9045 9.52 51.2125 10.24 49.6645 11.932L48.4045 10.06C50.2765 8.116 52.5085 7.18 55.3525 7.18C59.0605 7.18 62.0845 8.836 62.0845 13.048V25ZM54.6325 23.488C56.5045 23.488 58.3405 22.768 59.3845 21.328V18.016C58.3405 16.612 56.5045 15.892 54.6325 15.892C52.0765 15.892 50.3125 17.476 50.3125 19.672C50.3125 21.904 52.0765 23.488 54.6325 23.488ZM71.96 25.432C69.368 25.432 68.072 23.956 68.072 21.364V9.988H65.192V7.612H68.072V2.86H70.808V7.612H74.336V9.988H70.808V20.788C70.808 22.084 71.384 23.02 72.536 23.02C73.328 23.02 74.012 22.66 74.372 22.264L75.164 24.316C74.48 24.964 73.508 25.432 71.96 25.432ZM85.9981 25.432C80.8141 25.432 77.1061 21.724 77.1061 16.288C77.1061 11.248 80.7061 7.18 85.6741 7.18C90.9301 7.18 94.0261 11.284 94.0261 16.504V17.188H79.9861C80.2021 20.464 82.4701 23.2 86.2141 23.2C88.2301 23.2 90.2101 22.408 91.6141 20.968L92.9101 22.732C91.1461 24.46 88.8061 25.432 85.9981 25.432ZM91.3621 15.172C91.3261 12.616 89.5981 9.412 85.6381 9.412C81.9301 9.412 80.0941 12.544 79.9501 15.172H91.3621Z" fill="#E76F51"/>
</svg>
