<svg width="137" height="15" viewBox="0 0 137 15" fill="none" xmlns="http://www.w3.org/2000/svg">
<path d="M0.75 14V1.5H6.91667V2.91667H2.33333V5.58333H5.94444V7H2.33333V12.5833H6.91667V14H0.75ZM11.2361 14.1667C10.8102 14.1667 10.3519 14.088 9.86111 13.9306C9.37963 13.7639 8.96296 13.4907 8.61111 13.1111L9.02778 11.4722C9.28704 11.9074 9.62037 12.2546 10.0278 12.5139C10.4352 12.7639 10.8704 12.8889 11.3333 12.8889C11.7778 12.8889 12.1111 12.7824 12.3333 12.5694C12.5556 12.3472 12.6667 12.0787 12.6667 11.7639C12.6667 11.4028 12.5463 11.1389 12.3056 10.9722C12.0741 10.8056 11.8657 10.6898 11.6806 10.625L10.5556 10.1944C10.3519 10.1111 10.1065 9.99074 9.81944 9.83333C9.53241 9.66667 9.28241 9.43056 9.06944 9.125C8.85648 8.81944 8.75 8.4213 8.75 7.93056C8.75 7.48611 8.85648 7.0787 9.06944 6.70833C9.28241 6.33796 9.58333 6.0463 9.97222 5.83333C10.3611 5.61111 10.8194 5.5 11.3472 5.5C11.7639 5.5 12.1991 5.57407 12.6528 5.72222C13.1065 5.87037 13.4907 6.12037 13.8056 6.47222L13.3889 8.11111C13.2407 7.84259 13.0556 7.61111 12.8333 7.41667C12.6111 7.21296 12.3704 7.05556 12.1111 6.94444C11.8519 6.83333 11.5833 6.77778 11.3056 6.77778C10.9259 6.77778 10.625 6.88426 10.4028 7.09722C10.1898 7.31018 10.0833 7.55556 10.0833 7.83333C10.0833 8.05556 10.1574 8.25463 10.3056 8.43056C10.4537 8.60648 10.6759 8.75 10.9722 8.86111L12.0972 9.29167C12.3009 9.36574 12.5509 9.48611 12.8472 9.65278C13.1528 9.81944 13.4213 10.0602 13.6528 10.375C13.8843 10.6898 14 11.1157 14 11.6528C14 12.1528 13.8796 12.5926 13.6389 12.9722C13.3981 13.3426 13.0694 13.6343 12.6528 13.8472C12.2454 14.0602 11.7731 14.1667 11.2361 14.1667ZM17.1454 14V6.91667H15.2565V5.66667H17.1871V2.88889H18.6037V5.66667H20.6732V6.91667H18.6454V14H17.1454ZM25.5825 14.1111C25.0084 14.1111 24.4714 14 23.9714 13.7778C23.4714 13.5556 23.0269 13.25 22.638 12.8611C22.2584 12.463 21.9621 12.0093 21.7491 11.5C21.5362 10.9815 21.4297 10.4259 21.4297 9.83333C21.4297 9.24074 21.5362 8.68981 21.7491 8.18056C21.9621 7.66204 22.2584 7.20833 22.638 6.81944C23.0269 6.4213 23.4714 6.11111 23.9714 5.88889C24.4714 5.66667 25.0084 5.55556 25.5825 5.55556C26.1565 5.55556 26.6936 5.66204 27.1936 5.875C27.7028 6.08796 28.1427 6.38426 28.513 6.76389V5.66667H29.9019V14H28.513V12.9028C28.1427 13.2731 27.7028 13.5694 27.1936 13.7917C26.6936 14.0046 26.1565 14.1111 25.5825 14.1111ZM25.7769 12.75C26.3047 12.75 26.7815 12.6204 27.2075 12.3611C27.6427 12.0926 27.9852 11.7407 28.2352 11.3056C28.4945 10.8611 28.6241 10.3704 28.6241 9.83333C28.6241 9.2963 28.4945 8.81019 28.2352 8.375C27.9852 7.93056 27.6427 7.5787 27.2075 7.31944C26.7815 7.05093 26.3047 6.91667 25.7769 6.91667C25.2491 6.91667 24.7677 7.05093 24.3325 7.31944C23.9065 7.5787 23.5639 7.93056 23.3047 8.375C23.0547 8.81019 22.9297 9.2963 22.9297 9.83333C22.9297 10.3704 23.0547 10.8611 23.3047 11.3056C23.5639 11.7407 23.9065 12.0926 24.3325 12.3611C24.7677 12.6204 25.2491 12.75 25.7769 12.75ZM36.8793 14.1111C36.3053 14.1111 35.7682 14.0046 35.2682 13.7917C34.7682 13.5694 34.3284 13.2731 33.9488 12.9028V14H32.5599V0.666666H34.0599V6.65278C34.4303 6.31019 34.8562 6.04167 35.3377 5.84722C35.8192 5.65278 36.333 5.55556 36.8793 5.55556C37.4534 5.55556 37.9905 5.66667 38.4905 5.88889C38.9905 6.11111 39.4303 6.4213 39.8099 6.81944C40.1988 7.20833 40.4997 7.66204 40.7127 8.18056C40.9256 8.68981 41.0321 9.24074 41.0321 9.83333C41.0321 10.4259 40.9256 10.9815 40.7127 11.5C40.4997 12.0093 40.1988 12.463 39.8099 12.8611C39.4303 13.25 38.9905 13.5556 38.4905 13.7778C37.9905 14 37.4534 14.1111 36.8793 14.1111ZM36.6849 12.75C37.2127 12.75 37.6895 12.6204 38.1155 12.3611C38.5506 12.0926 38.8932 11.7407 39.1432 11.3056C39.4025 10.8611 39.5321 10.3704 39.5321 9.83333C39.5321 9.2963 39.4025 8.81019 39.1432 8.375C38.8932 7.93056 38.5506 7.5787 38.1155 7.31944C37.6895 7.05093 37.2127 6.91667 36.6849 6.91667C36.1571 6.91667 35.6756 7.05093 35.2405 7.31944C34.8145 7.5787 34.4719 7.93056 34.2127 8.375C33.9627 8.81019 33.8377 9.2963 33.8377 9.83333C33.8377 10.3704 33.9627 10.8611 34.2127 11.3056C34.4719 11.7407 34.8145 12.0926 35.2405 12.3611C35.6756 12.6204 36.1571 12.75 36.6849 12.75ZM43.1068 14V0.666666H44.6068V14H43.1068ZM47.2669 14V5.66667H48.7669V14H47.2669ZM48.0169 4.16667C47.8317 4.16667 47.6604 4.125 47.503 4.04167C47.3549 3.94907 47.2345 3.8287 47.1419 3.68055C47.0586 3.52315 47.0169 3.35185 47.0169 3.16667C47.0169 2.97222 47.0586 2.80093 47.1419 2.65278C47.2345 2.50463 47.3549 2.38889 47.503 2.30556C47.6604 2.21296 47.8317 2.16667 48.0169 2.16667C48.2114 2.16667 48.3827 2.21296 48.5308 2.30556C48.679 2.38889 48.7947 2.50463 48.878 2.65278C48.9706 2.80093 49.0169 2.97222 49.0169 3.16667C49.0169 3.35185 48.9706 3.52315 48.878 3.68055C48.7947 3.8287 48.679 3.94907 48.5308 4.04167C48.3827 4.125 48.2114 4.16667 48.0169 4.16667ZM53.5799 14.1667C53.1539 14.1667 52.6956 14.088 52.2049 13.9306C51.7234 13.7639 51.3067 13.4907 50.9549 13.1111L51.3715 11.4722C51.6308 11.9074 51.9641 12.2546 52.3715 12.5139C52.7789 12.7639 53.2141 12.8889 53.6771 12.8889C54.1215 12.8889 54.4549 12.7824 54.6771 12.5694C54.8993 12.3472 55.0104 12.0787 55.0104 11.7639C55.0104 11.4028 54.89 11.1389 54.6493 10.9722C54.4178 10.8056 54.2095 10.6898 54.0243 10.625L52.8993 10.1944C52.6956 10.1111 52.4502 9.99074 52.1632 9.83333C51.8762 9.66667 51.6262 9.43056 51.4132 9.125C51.2002 8.81944 51.0938 8.4213 51.0938 7.93056C51.0938 7.48611 51.2002 7.0787 51.4132 6.70833C51.6262 6.33796 51.9271 6.0463 52.316 5.83333C52.7049 5.61111 53.1632 5.5 53.691 5.5C54.1076 5.5 54.5428 5.57407 54.9965 5.72222C55.4502 5.87037 55.8345 6.12037 56.1493 6.47222L55.7326 8.11111C55.5845 7.84259 55.3993 7.61111 55.1771 7.41667C54.9549 7.21296 54.7141 7.05556 54.4549 6.94444C54.1956 6.83333 53.9271 6.77778 53.6493 6.77778C53.2697 6.77778 52.9687 6.88426 52.7465 7.09722C52.5336 7.31018 52.4271 7.55556 52.4271 7.83333C52.4271 8.05556 52.5012 8.25463 52.6493 8.43056C52.7975 8.60648 53.0197 8.75 53.316 8.86111L54.441 9.29167C54.6447 9.36574 54.8947 9.48611 55.191 9.65278C55.4965 9.81944 55.765 10.0602 55.9965 10.375C56.228 10.6898 56.3438 11.1157 56.3438 11.6528C56.3438 12.1528 56.2234 12.5926 55.9826 12.9722C55.7419 13.3426 55.4132 13.6343 54.9965 13.8472C54.5891 14.0602 54.1169 14.1667 53.5799 14.1667ZM58.5169 14V0.666666H60.0169V6.84722C60.3317 6.41204 60.7206 6.0787 61.1836 5.84722C61.6466 5.61574 62.1419 5.5 62.6697 5.5C63.2623 5.5 63.8086 5.64815 64.3086 5.94444C64.8179 6.23148 65.2299 6.65278 65.5447 7.20833C65.8595 7.75463 66.0169 8.4213 66.0169 9.20833V14H64.5169V9.41667C64.5169 8.97222 64.429 8.56018 64.253 8.18056C64.0771 7.80093 63.8225 7.49537 63.4891 7.26389C63.1558 7.03241 62.7484 6.91667 62.2669 6.91667C61.878 6.91667 61.5123 7.01389 61.1697 7.20833C60.8271 7.39352 60.5493 7.66667 60.3364 8.02778C60.1234 8.38889 60.0169 8.83796 60.0169 9.375V14H58.5169ZM72.4891 14.1667C71.8317 14.1667 71.2253 14.0556 70.6697 13.8333C70.1141 13.6019 69.6327 13.287 69.2253 12.8889C68.8179 12.4907 68.4984 12.0231 68.2669 11.4861C68.0447 10.9491 67.9336 10.3704 67.9336 9.75C67.9336 9.15741 68.0401 8.60648 68.253 8.09722C68.4753 7.5787 68.7808 7.125 69.1697 6.73611C69.5586 6.34722 70.0077 6.0463 70.5169 5.83333C71.0354 5.61111 71.5864 5.5 72.1697 5.5C72.9382 5.5 73.6419 5.68519 74.2808 6.05556C74.9197 6.41667 75.429 6.90741 75.8086 7.52778C76.1882 8.14815 76.378 8.85185 76.378 9.63889V10.25H70.9336C70.6929 10.25 70.4475 10.2407 70.1975 10.2222C69.9475 10.2037 69.7021 10.1759 69.4614 10.1389C69.5262 10.6296 69.6975 11.0741 69.9753 11.4722C70.2623 11.8704 70.6234 12.1852 71.0586 12.4167C71.4938 12.6389 71.9753 12.75 72.503 12.75C73.0308 12.75 73.5216 12.6296 73.9753 12.3889C74.429 12.1481 74.7947 11.8287 75.0725 11.4306L75.4891 13.1389C75.091 13.463 74.6327 13.7176 74.1141 13.9028C73.6049 14.0787 73.0632 14.1667 72.4891 14.1667ZM69.4197 9.125C69.6697 9.0787 69.9197 9.0463 70.1697 9.02778C70.429 9.00926 70.6836 9 70.9336 9H73.6975C73.9012 9 74.1003 9.00926 74.2947 9.02778C74.4984 9.03704 74.7021 9.05093 74.9058 9.06944C74.8225 8.63426 74.6466 8.25 74.378 7.91667C74.1095 7.58333 73.7854 7.31944 73.4058 7.125C73.0262 6.93056 72.6141 6.83333 72.1697 6.83333C71.716 6.83333 71.2947 6.93981 70.9058 7.15278C70.5262 7.35648 70.2067 7.62963 69.9475 7.97222C69.6882 8.31481 69.5123 8.69907 69.4197 9.125ZM81.9497 14.1111C81.3756 14.1111 80.8385 14 80.3385 13.7778C79.8385 13.5556 79.3941 13.25 79.0052 12.8611C78.6256 12.463 78.3293 12.0093 78.1163 11.5C77.9034 10.9815 77.7969 10.4259 77.7969 9.83333C77.7969 9.24074 77.9034 8.68981 78.1163 8.18056C78.3293 7.66204 78.6256 7.20833 79.0052 6.81944C79.3941 6.4213 79.8385 6.11111 80.3385 5.88889C80.8385 5.66667 81.3756 5.55556 81.9497 5.55556C82.4959 5.55556 83.0098 5.65278 83.4913 5.84722C83.9728 6.04167 84.3987 6.31019 84.7691 6.65278V0.666666H86.2691V14H84.8802V12.9028C84.5098 13.2731 84.07 13.5694 83.5608 13.7917C83.0608 14.0046 82.5237 14.1111 81.9497 14.1111ZM82.1441 12.75C82.6719 12.75 83.1487 12.6204 83.5747 12.3611C84.0098 12.0926 84.3524 11.7407 84.6024 11.3056C84.8617 10.8611 84.9913 10.3704 84.9913 9.83333C84.9913 9.2963 84.8617 8.81019 84.6024 8.375C84.3524 7.93056 84.0098 7.5787 83.5747 7.31944C83.1487 7.05093 82.6719 6.91667 82.1441 6.91667C81.6163 6.91667 81.1348 7.05093 80.6997 7.31944C80.2737 7.5787 79.9311 7.93056 79.6719 8.375C79.4219 8.81019 79.2969 9.2963 79.2969 9.83333C79.2969 10.3704 79.4219 10.8611 79.6719 11.3056C79.9311 11.7407 80.2737 12.0926 80.6997 12.3611C81.1348 12.6204 81.6163 12.75 82.1441 12.75ZM97.5668 14V13.9722L102.581 6.54167C102.821 6.18981 102.984 5.88426 103.067 5.625C103.15 5.36574 103.192 5.125 103.192 4.90278C103.192 4.50463 103.095 4.14352 102.9 3.81944C102.706 3.49537 102.442 3.23611 102.109 3.04167C101.775 2.84722 101.405 2.75 100.997 2.75C100.59 2.75 100.22 2.84722 99.8863 3.04167C99.5622 3.23611 99.303 3.49537 99.1085 3.81944C98.9141 4.14352 98.8168 4.50463 98.8168 4.90278C98.8168 5.21759 98.8863 5.51852 99.0252 5.80556C99.1641 6.09259 99.377 6.35185 99.6641 6.58333H97.7613C97.465 6.01852 97.3168 5.45833 97.3168 4.90278C97.3168 4.40278 97.4141 3.93518 97.6085 3.5C97.803 3.06481 98.0668 2.68519 98.4002 2.36111C98.7428 2.03704 99.1363 1.78704 99.5807 1.61111C100.025 1.42593 100.502 1.33333 101.011 1.33333C101.511 1.33333 101.984 1.42593 102.428 1.61111C102.872 1.78704 103.261 2.03704 103.595 2.36111C103.937 2.68519 104.206 3.06481 104.4 3.5C104.595 3.93518 104.692 4.40278 104.692 4.90278C104.692 5.16204 104.664 5.4213 104.609 5.68056C104.553 5.93981 104.46 6.2037 104.331 6.47222C104.201 6.74074 104.03 7.03241 103.817 7.34722L100.206 12.5833H104.928V14H97.5668ZM111.533 14.1667C110.801 14.1667 110.162 13.9861 109.616 13.625C109.07 13.2546 108.611 12.7639 108.241 12.1528C107.88 11.5324 107.607 10.8426 107.421 10.0833C107.246 9.31481 107.158 8.53704 107.158 7.75C107.158 6.96296 107.246 6.18981 107.421 5.43056C107.607 4.66204 107.88 3.97222 108.241 3.36111C108.611 2.74074 109.07 2.25 109.616 1.88889C110.162 1.51852 110.801 1.33333 111.533 1.33333C112.264 1.33333 112.903 1.51852 113.449 1.88889C113.996 2.25 114.449 2.74074 114.81 3.36111C115.181 3.97222 115.454 4.66204 115.63 5.43056C115.815 6.18981 115.908 6.96296 115.908 7.75C115.908 8.53704 115.815 9.31481 115.63 10.0833C115.454 10.8426 115.181 11.5324 114.81 12.1528C114.449 12.7639 113.996 13.2546 113.449 13.625C112.903 13.9861 112.264 14.1667 111.533 14.1667ZM111.533 12.75C112.023 12.75 112.445 12.6019 112.796 12.3056C113.148 12.0093 113.435 11.6157 113.658 11.125C113.88 10.6343 114.046 10.0972 114.158 9.51389C114.269 8.9213 114.324 8.33333 114.324 7.75C114.324 7.16667 114.269 6.58333 114.158 6C114.046 5.40741 113.88 4.86574 113.658 4.375C113.435 3.88426 113.148 3.49074 112.796 3.19444C112.445 2.89815 112.023 2.75 111.533 2.75C111.051 2.75 110.63 2.89815 110.269 3.19444C109.917 3.49074 109.63 3.88426 109.408 4.375C109.185 4.86574 109.019 5.40741 108.908 6C108.796 6.58333 108.741 7.16667 108.741 7.75C108.741 8.33333 108.796 8.9213 108.908 9.51389C109.019 10.0972 109.185 10.6343 109.408 11.125C109.63 11.6157 109.917 12.0093 110.269 12.3056C110.63 12.6019 111.051 12.75 111.533 12.75ZM121.943 14.1667C121.211 14.1667 120.572 13.9861 120.026 13.625C119.48 13.2546 119.021 12.7639 118.651 12.1528C118.29 11.5324 118.017 10.8426 117.832 10.0833C117.656 9.31481 117.568 8.53704 117.568 7.75C117.568 6.96296 117.656 6.18981 117.832 5.43056C118.017 4.66204 118.29 3.97222 118.651 3.36111C119.021 2.74074 119.48 2.25 120.026 1.88889C120.572 1.51852 121.211 1.33333 121.943 1.33333C122.674 1.33333 123.313 1.51852 123.859 1.88889C124.406 2.25 124.859 2.74074 125.22 3.36111C125.591 3.97222 125.864 4.66204 126.04 5.43056C126.225 6.18981 126.318 6.96296 126.318 7.75C126.318 8.53704 126.225 9.31481 126.04 10.0833C125.864 10.8426 125.591 11.5324 125.22 12.1528C124.859 12.7639 124.406 13.2546 123.859 13.625C123.313 13.9861 122.674 14.1667 121.943 14.1667ZM121.943 12.75C122.433 12.75 122.855 12.6019 123.207 12.3056C123.558 12.0093 123.845 11.6157 124.068 11.125C124.29 10.6343 124.457 10.0972 124.568 9.51389C124.679 8.9213 124.734 8.33333 124.734 7.75C124.734 7.16667 124.679 6.58333 124.568 6C124.457 5.40741 124.29 4.86574 124.068 4.375C123.845 3.88426 123.558 3.49074 123.207 3.19444C122.855 2.89815 122.433 2.75 121.943 2.75C121.461 2.75 121.04 2.89815 120.679 3.19444C120.327 3.49074 120.04 3.88426 119.818 4.375C119.595 4.86574 119.429 5.40741 119.318 6C119.207 6.58333 119.151 7.16667 119.151 7.75C119.151 8.33333 119.207 8.9213 119.318 9.51389C119.429 10.0972 119.595 10.6343 119.818 11.125C120.04 11.6157 120.327 12.0093 120.679 12.3056C121.04 12.6019 121.461 12.75 121.943 12.75ZM133.478 14V10.6389H127.478V10.6111L132.158 1.5H133.825L129.77 9.30556H133.52V6.5L134.936 5.75V9.30556H136.811V10.6389H134.978V14H133.478Z" fill="#264653"/>
</svg>
