<svg width="29" height="29" viewBox="0 0 29 29" fill="none" xmlns="http://www.w3.org/2000/svg">
<path d="M23.0514 5.95475C20.7724 3.67462 17.7419 2.41796 14.5133 2.41675C7.8602 2.41675 2.44566 7.82887 2.44324 14.482C2.44203 16.6086 2.99786 18.6845 4.05395 20.514L2.41666 26.5834L8.73986 25.0887C10.5028 26.0505 12.4869 26.5568 14.5072 26.558H14.5121C21.1639 26.558 26.5785 21.1447 26.5821 14.4928C26.5845 11.2678 25.3303 8.23608 23.0514 5.95475ZM20.4184 18.7945C20.1671 19.499 18.9358 20.178 18.3824 20.2276C17.8289 20.2783 17.3106 20.4777 14.7634 19.4736C11.6979 18.2652 9.76212 15.1224 9.61228 14.9218C9.46124 14.72 8.38099 13.2869 8.38099 11.8031C8.38099 10.3192 9.16037 9.58941 9.43707 9.28854C9.71378 8.98646 10.04 8.91154 10.2418 8.91154C10.4424 8.91154 10.6442 8.91154 10.8194 8.91879C11.0345 8.92725 11.2725 8.93812 11.4985 9.43958C11.7667 10.0365 12.3528 11.5276 12.4277 11.6786C12.5026 11.8297 12.5534 12.0061 12.4531 12.2067C12.3528 12.4072 12.302 12.5329 12.1522 12.7093C12.0012 12.8857 11.8356 13.102 11.7003 13.2374C11.5492 13.3872 11.3922 13.5515 11.5674 13.8524C11.7438 14.1545 12.3479 15.1417 13.2445 15.9404C14.3973 16.9675 15.3676 17.2853 15.6697 17.4375C15.9717 17.5886 16.1469 17.5632 16.3234 17.3614C16.4998 17.1608 17.0774 16.4817 17.2779 16.1797C17.4785 15.8776 17.6803 15.9283 17.957 16.0286C18.2337 16.1289 19.7164 16.8587 20.0172 17.0098C20.3193 17.1608 20.5199 17.2357 20.5948 17.3614C20.6697 17.4859 20.6697 18.09 20.4184 18.7945Z" fill="#264653"/>
</svg>
