<svg width="29" height="29" viewBox="0 0 29 29" fill="none" xmlns="http://www.w3.org/2000/svg">
<path d="M26.5834 4.83203C25.6409 5.39149 23.7498 6.15395 22.6381 6.37386C22.6055 6.38232 22.5789 6.3932 22.5475 6.40166C21.5651 5.43257 20.2191 4.83203 18.7292 4.83203C15.7265 4.83203 13.2917 7.26682 13.2917 10.2695C13.2917 10.4278 13.2784 10.719 13.2917 10.8737C9.24015 10.8737 6.15648 8.75186 3.94523 6.04036C3.70477 6.64453 3.59965 7.59911 3.59965 8.4957C3.59965 10.1886 4.92277 11.8512 6.98298 12.8819C6.60356 12.9798 6.18548 13.0499 5.75048 13.0499C5.04844 13.0499 4.30531 12.865 3.62502 12.3044C3.62502 12.3249 3.62502 12.3442 3.62502 12.366C3.62502 14.7319 6.13594 16.3426 8.36894 16.7909C7.91581 17.0579 7.00231 17.0845 6.55644 17.0845C6.24227 17.0845 5.1306 16.9407 4.83335 16.8852C5.45444 18.8245 7.69469 19.9144 9.82981 19.9531C8.1599 21.2629 7.0011 21.7487 3.58152 21.7487H2.41669C4.57719 23.1334 7.32856 24.1666 10.086 24.1666C19.0639 24.1666 24.1667 17.3238 24.1667 10.8737C24.1667 10.7698 24.1643 10.5523 24.1606 10.3336C24.1606 10.3118 24.1667 10.2913 24.1667 10.2695C24.1667 10.2369 24.157 10.2055 24.157 10.1729C24.1534 10.0085 24.1498 9.85507 24.1461 9.77532C25.1007 9.08657 25.9284 8.22745 26.5834 7.2487C25.7073 7.63778 24.7672 7.89878 23.78 8.0172C24.7878 7.41303 26.2196 5.9727 26.5834 4.83203Z" fill="#264653"/>
</svg>
