<svg width="121" height="49" viewBox="0 0 121 49" fill="none" xmlns="http://www.w3.org/2000/svg">
<path d="M60.1484 38.6016C60.0964 39.1224 59.9141 39.526 59.6016 39.8125C59.2891 40.125 58.8854 40.2812 58.3906 40.2812C58.1302 40.2812 57.8828 40.2422 57.6484 40.1641C57.1536 40.5547 56.5677 40.8542 55.8906 41.0625C55.2135 41.2708 54.5755 41.4792 53.9766 41.6875C53.2474 41.6615 52.5312 41.5964 51.8281 41.4922C51.125 41.388 50.3958 41.362 49.6406 41.4141C49.3802 41.2318 49.1068 41.1146 48.8203 41.0625C48.5339 41.0104 48.2344 40.9714 47.9219 40.9453C47.6354 40.9453 47.349 40.9062 47.0625 40.8281C46.8021 40.75 46.5417 40.5677 46.2812 40.2812H44.3281C44.1458 40.2812 43.8724 40.1901 43.5078 40.0078C43.1693 39.8516 42.7786 39.6823 42.3359 39.5C41.9193 39.3177 41.4635 39.1484 40.9688 38.9922C40.5 38.8359 40.0573 38.7578 39.6406 38.7578H39.4062C39.1198 38.5234 38.7812 38.3411 38.3906 38.2109C38.026 38.1068 37.6484 38.0026 37.2578 37.8984C36.8672 37.8203 36.4896 37.7292 36.125 37.625C35.7604 37.5208 35.4479 37.3776 35.1875 37.1953C34.9271 37.013 34.6276 36.8307 34.2891 36.6484C33.9505 36.4401 33.599 36.349 33.2344 36.375C32.7396 36.0885 32.2188 35.8411 31.6719 35.6328C31.151 35.4245 30.6172 35.2292 30.0703 35.0469L28.4688 34.4609C27.9479 34.2526 27.4271 34.0052 26.9062 33.7188C26.8281 33.7448 26.737 33.7448 26.6328 33.7188C26.5286 33.6927 26.4375 33.6797 26.3594 33.6797C26.2031 33.6797 26.112 33.7318 26.0859 33.8359C25.9036 33.6536 25.6953 33.4974 25.4609 33.3672C25.2526 33.237 25.0443 33.0807 24.8359 32.8984C24.7318 32.9245 24.6276 32.9505 24.5234 32.9766C24.4453 32.9766 24.3411 32.9766 24.2109 32.9766C23.9766 32.9766 23.7422 32.9505 23.5078 32.8984C23.2995 32.8464 23.0911 32.7812 22.8828 32.7031C22.6484 33.224 22.4922 33.8099 22.4141 34.4609C22.3359 35.112 22.2708 35.7891 22.2188 36.4922C22.1927 37.1693 22.1536 37.8464 22.1016 38.5234C22.0495 39.2266 21.9323 39.8646 21.75 40.4375C21.8021 40.6458 21.8281 40.8542 21.8281 41.0625V41.7266C21.8281 42.1693 21.8932 42.5208 22.0234 42.7812C21.9714 43.0156 21.9193 43.237 21.8672 43.4453C21.8411 43.6536 21.8021 43.862 21.75 44.0703C21.776 44.3568 21.7891 44.6172 21.7891 44.8516C21.8151 45.112 21.8281 45.3854 21.8281 45.6719V46.3359C21.8281 46.5703 21.8021 46.8047 21.75 47.0391C21.4896 47.1953 21.2292 47.3385 20.9688 47.4688C20.7083 47.625 20.4479 47.8073 20.1875 48.0156C20.0052 47.6771 19.6927 47.4818 19.25 47.4297C19.1458 47.5599 19.0677 47.7292 19.0156 47.9375C18.9896 48.1719 18.8724 48.2891 18.6641 48.2891C18.2995 48.0026 18 47.7682 17.7656 47.5859C17.5312 47.4036 17.2708 47.1302 16.9844 46.7656C16.9583 46.7135 16.9453 46.6484 16.9453 46.5703C16.9453 46.4401 16.9714 46.3229 17.0234 46.2188C17.0755 46.1146 17.1016 46.0104 17.1016 45.9062C17.1016 45.5938 17.0625 45.3203 16.9844 45.0859C16.9323 44.7474 16.8932 44.4089 16.8672 44.0703C16.8411 43.7578 16.8281 43.4453 16.8281 43.1328C16.8281 42.6901 16.8542 42.2604 16.9062 41.8438C16.9844 41.4271 17.1146 40.9974 17.2969 40.5547C17.5833 39.7995 17.7786 39.0052 17.8828 38.1719C18.013 37.3385 18.1042 36.5052 18.1562 35.6719C18.2083 34.8125 18.2344 33.9531 18.2344 33.0938C18.2604 32.2344 18.3125 31.4141 18.3906 30.6328C18.2083 30.2161 17.987 29.8906 17.7266 29.6562C17.4922 29.3958 17.375 28.9922 17.375 28.4453C17.375 27.9505 17.5312 27.5729 17.8438 27.3125C18.1562 27.026 18.4297 26.6875 18.6641 26.2969C18.612 26.1406 18.651 26.0365 18.7812 25.9844L19.25 21.8828C19.276 21.5964 19.3151 21.2839 19.3672 20.9453C19.4453 20.6068 19.4974 20.2943 19.5234 20.0078C19.5755 19.4089 19.6016 18.8229 19.6016 18.25C19.6016 17.6771 19.6276 17.1042 19.6797 16.5312C19.8099 15.2552 19.9271 13.9922 20.0312 12.7422C20.1615 11.4922 20.2266 10.2422 20.2266 8.99219C20.2266 8.39323 20.2005 7.79427 20.1484 7.19531C20.1224 6.59635 20.0443 5.9974 19.9141 5.39844C19.4714 5.52865 18.9766 5.67188 18.4297 5.82812C17.9089 5.95833 17.4661 6.19271 17.1016 6.53125H16.7891C16.112 6.53125 15.474 6.66146 14.875 6.92188C14.3021 7.18229 13.7161 7.42969 13.1172 7.66406C12.8568 7.79427 12.5964 7.88542 12.3359 7.9375C12.0755 7.96354 11.8021 8.01562 11.5156 8.09375C11.3854 8.11979 11.2422 8.19792 11.0859 8.32812C10.9297 8.45833 10.7865 8.54948 10.6562 8.60156L9.99219 8.75781C9.8099 8.8099 9.73177 8.92708 9.75781 9.10938C9.78385 9.29167 9.71875 9.40885 9.5625 9.46094C9.43229 9.59115 9.25 9.65625 9.01562 9.65625C8.78125 9.63021 8.59896 9.61719 8.46875 9.61719H8.3125C7.66146 10.0859 7.03646 10.4896 6.4375 10.8281C5.8125 11.1406 5.08333 11.349 4.25 11.4531L3.39062 12C3.10417 12.1823 2.77865 12.2734 2.41406 12.2734C2.1276 12.2734 1.89323 12.2214 1.71094 12.1172C1.5026 11.8047 1.34635 11.4531 1.24219 11.0625C1.11198 10.6719 0.903646 10.3333 0.617188 10.0469C0.747396 9.91667 0.838542 9.7474 0.890625 9.53906C0.916667 9.30469 0.955729 9.09635 1.00781 8.91406C1.78906 8.57552 2.58333 8.25 3.39062 7.9375C4.17188 7.625 4.92708 7.2474 5.65625 6.80469C5.73438 6.83073 5.85156 6.84375 6.00781 6.84375C6.26823 6.84375 6.5026 6.80469 6.71094 6.72656C6.91927 6.64844 7.1276 6.55729 7.33594 6.45312C7.54427 6.34896 7.7526 6.25781 7.96094 6.17969C8.16927 6.10156 8.41667 6.07552 8.70312 6.10156C9.58854 5.60677 10.526 5.20312 11.5156 4.89062C12.5052 4.57812 13.4427 4.14844 14.3281 3.60156C14.4583 3.60156 14.5625 3.6276 14.6406 3.67969C14.7448 3.73177 14.849 3.75781 14.9531 3.75781C15.0573 3.75781 15.1224 3.74479 15.1484 3.71875C15.3047 3.51042 15.513 3.36719 15.7734 3.28906C16.0339 3.1849 16.2943 3.10677 16.5547 3.05469C16.8411 2.97656 17.1016 2.88542 17.3359 2.78125C17.5964 2.65104 17.7656 2.45573 17.8438 2.19531C17.974 2.29948 18.1693 2.35156 18.4297 2.35156C18.8724 2.35156 19.276 2.26042 19.6406 2.07812C20.0312 1.89583 20.4479 1.80469 20.8906 1.80469C20.9948 1.80469 21.0859 1.83073 21.1641 1.88281C21.2682 1.90885 21.3724 1.92188 21.4766 1.92188C21.6849 1.92188 21.7891 1.85677 21.7891 1.72656C21.8151 1.59635 21.8932 1.47917 22.0234 1.375C23.612 1.08854 25.1875 0.828125 26.75 0.59375C28.3385 0.359375 29.9401 0.242188 31.5547 0.242188C31.7891 0.0859375 32.0495 0.0078125 32.3359 0.0078125C32.6224 0.0078125 32.8828 0.0859375 33.1172 0.242188C33.5599 0.190104 34.0026 0.151042 34.4453 0.125C34.888 0.0989583 35.3307 0.0859375 35.7734 0.0859375C36.7891 0.0859375 37.8307 0.151042 38.8984 0.28125C39.9661 0.411458 41.0208 0.619792 42.0625 0.90625C43.1302 1.16667 44.1458 1.53125 45.1094 2C46.0729 2.44271 46.9714 2.97656 47.8047 3.60156C47.8828 3.83594 47.987 4.07031 48.1172 4.30469C48.2474 4.53906 48.4167 4.72135 48.625 4.85156C48.625 4.90365 48.612 4.94271 48.5859 4.96875C48.5859 4.99479 48.5859 5.03385 48.5859 5.08594C48.5859 5.3724 48.6641 5.64583 48.8203 5.90625C49.0026 6.16667 49.0938 6.47917 49.0938 6.84375C49.0938 7.20833 49.0286 7.57292 48.8984 7.9375C48.7943 8.30208 48.7552 8.66667 48.7812 9.03125C48.4948 9.44792 48.2474 9.82552 48.0391 10.1641C47.8568 10.5026 47.7396 10.9323 47.6875 11.4531C47.2188 11.9219 46.8021 12.4427 46.4375 13.0156C46.0729 13.5625 45.6953 14.1094 45.3047 14.6562C44.9401 15.1771 44.5234 15.6589 44.0547 16.1016C43.5859 16.5443 43.026 16.8958 42.375 17.1562C42.349 17.4167 42.2448 17.7031 42.0625 18.0156H41.2422C41.1641 18.224 41.0339 18.3802 40.8516 18.4844L40.3047 18.7969C40.1224 18.901 39.9661 19.0312 39.8359 19.1875C39.7318 19.3438 39.6797 19.5651 39.6797 19.8516C39.6276 19.8255 39.5625 19.8125 39.4844 19.8125C39.224 19.8125 38.9115 19.9427 38.5469 20.2031C38.2083 20.4635 37.9349 20.6719 37.7266 20.8281C37.2839 21.1406 36.8281 21.4271 36.3594 21.6875C35.9167 21.9479 35.526 22.3125 35.1875 22.7812C34.1458 23.224 33.1562 23.7448 32.2188 24.3438C31.2812 24.9167 30.2656 25.3724 29.1719 25.7109C28.7552 26.1536 28.2604 26.5052 27.6875 26.7656C27.1406 27 26.6068 27.2604 26.0859 27.5469V27.6641C26.0859 27.8724 26.1641 28.0807 26.3203 28.2891C26.4766 28.4714 26.6589 28.6406 26.8672 28.7969C27.0755 28.9271 27.2969 29.0182 27.5312 29.0703C27.7917 29.1224 28.013 29.1224 28.1953 29.0703C28.7161 29.5391 29.3151 29.9167 29.9922 30.2031C30.6693 30.4896 31.3724 30.75 32.1016 30.9844C32.8307 31.2188 33.5469 31.4661 34.25 31.7266C34.9531 31.987 35.6042 32.3125 36.2031 32.7031H37.1406C37.7396 33.224 38.4427 33.6146 39.25 33.875C40.0833 34.1354 40.8776 34.3698 41.6328 34.5781C41.9453 34.8646 42.3359 35.0859 42.8047 35.2422C43.2995 35.3724 43.7682 35.4375 44.2109 35.4375H44.4453C44.5495 35.4375 44.6406 35.4245 44.7188 35.3984V35.4766C44.7188 35.6068 44.7578 35.6979 44.8359 35.75C44.9141 35.776 44.9922 35.8021 45.0703 35.8281C45.1745 35.8281 45.2656 35.8542 45.3438 35.9062C45.4479 35.9323 45.526 35.9844 45.5781 36.0625H45.9688C46.5156 36.0625 47.0365 36.1797 47.5312 36.4141C48.026 36.6224 48.5469 36.7266 49.0938 36.7266C49.3281 36.7266 49.5104 36.7005 49.6406 36.6484C49.7969 36.7005 49.9141 36.8047 49.9922 36.9609C50.0703 37.1172 50.1745 37.2474 50.3047 37.3516C50.487 37.3255 50.6562 37.2995 50.8125 37.2734C50.9688 37.2734 51.125 37.2734 51.2812 37.2734C51.8542 37.2734 52.388 37.3385 52.8828 37.4688C53.3776 37.599 53.8854 37.7943 54.4062 38.0547C55.2396 37.6901 56.0599 37.3906 56.8672 37.1562C57.6745 36.9219 58.5339 36.8047 59.4453 36.8047V36.8828C59.4453 37.1953 59.5234 37.4818 59.6797 37.7422C59.862 38.0286 60.0182 38.3151 60.1484 38.6016ZM45.1875 7.42969C45.1875 7.11719 45.1224 6.86979 44.9922 6.6875C44.888 6.50521 44.7448 6.34896 44.5625 6.21875C44.3802 6.0625 44.1849 5.91927 43.9766 5.78906C43.7943 5.65885 43.625 5.48958 43.4688 5.28125C42.7917 5.07292 42.1276 4.83854 41.4766 4.57812C40.8255 4.31771 40.1615 4.09635 39.4844 3.91406C39.1458 3.83594 38.8073 3.77083 38.4688 3.71875C38.1302 3.64062 37.7917 3.60156 37.4531 3.60156H36.5938C36.4375 3.57552 36.2682 3.54948 36.0859 3.52344C35.9297 3.47135 35.7734 3.43229 35.6172 3.40625C35.2526 3.35417 34.888 3.3151 34.5234 3.28906C34.1849 3.26302 33.8333 3.25 33.4688 3.25C32.7917 3.25 32.1146 3.27604 31.4375 3.32812L29.4062 3.48438C29.1198 3.51042 28.8203 3.52344 28.5078 3.52344C28.1953 3.52344 27.9089 3.54948 27.6484 3.60156C27.5182 3.6276 27.3359 3.69271 27.1016 3.79688C26.8672 3.875 26.6198 3.96615 26.3594 4.07031C26.099 4.14844 25.8385 4.23958 25.5781 4.34375C25.3438 4.44792 25.1354 4.52604 24.9531 4.57812C24.9792 4.76042 24.9922 4.94271 24.9922 5.125V5.63281C24.9922 6.02344 24.9792 6.41406 24.9531 6.80469C24.9271 7.19531 24.875 7.58594 24.7969 7.97656C24.7708 8.13281 24.7318 8.28906 24.6797 8.44531C24.6276 8.60156 24.5885 8.75781 24.5625 8.91406C24.5104 9.14844 24.4844 9.40885 24.4844 9.69531V10.4375C24.4323 11.0365 24.3932 11.6224 24.3672 12.1953C24.3411 12.7682 24.3021 13.3542 24.25 13.9531C24.0938 15.6719 23.9245 17.3776 23.7422 19.0703C23.5859 20.763 23.4818 22.4688 23.4297 24.1875C24.2891 24.0052 25.1094 23.7318 25.8906 23.3672C26.6719 23.0026 27.4401 22.612 28.1953 22.1953C28.9505 21.7526 29.7057 21.3229 30.4609 20.9062C31.2161 20.4896 32.0104 20.138 32.8438 19.8516C33.0521 19.5651 33.2995 19.3307 33.5859 19.1484C33.8984 18.9661 34.1589 18.7318 34.3672 18.4453C34.6276 18.4453 34.8229 18.3932 34.9531 18.2891C35.0833 18.1589 35.2526 18.0677 35.4609 18.0156C36.7109 16.9219 37.987 15.8932 39.2891 14.9297C40.5911 13.9661 41.8411 12.9375 43.0391 11.8438C43.1432 11.4792 43.3125 11.1276 43.5469 10.7891C43.8073 10.4245 44.0547 10.0599 44.2891 9.69531C44.5234 9.33073 44.7318 8.96615 44.9141 8.60156C45.0964 8.23698 45.1875 7.84635 45.1875 7.42969ZM72.6094 12.1562V12.3125C72.4271 12.3646 72.3359 12.4948 72.3359 12.7031C72.0495 12.8333 71.75 12.9375 71.4375 13.0156C71.125 13.0677 70.8255 13.1589 70.5391 13.2891C70.2526 13.263 69.9531 13.25 69.6406 13.25C69.3542 13.224 69.0677 13.2109 68.7812 13.2109C68 13.2109 67.2188 13.237 66.4375 13.2891C65.6562 13.3411 64.875 13.3411 64.0938 13.2891C63.7292 13.4974 63.3255 13.6667 62.8828 13.7969C62.4661 13.901 62.0625 13.9531 61.6719 13.9531C61.3594 13.9531 61.0859 13.9141 60.8516 13.8359C60.2266 14.1484 59.5365 14.4089 58.7812 14.6172C58.0521 14.8255 57.3099 15.0339 56.5547 15.2422C55.7995 15.4245 55.0703 15.6458 54.3672 15.9062C53.6901 16.1406 53.0911 16.4792 52.5703 16.9219C52.5182 17.2865 52.4792 17.651 52.4531 18.0156C52.4271 18.3542 52.4141 18.6927 52.4141 19.0312C52.4141 19.3958 52.4271 19.7344 52.4531 20.0469C52.5052 20.3594 52.5964 20.6719 52.7266 20.9844C52.8568 21.0365 53 21.0755 53.1562 21.1016C53.3385 21.1276 53.4948 21.1406 53.625 21.1406C53.7552 21.1406 53.8854 21.1276 54.0156 21.1016C54.1458 21.0495 54.237 20.9583 54.2891 20.8281C54.6797 20.776 55.0703 20.763 55.4609 20.7891C55.8516 20.7891 56.2422 20.7891 56.6328 20.7891C57.0234 20.7891 57.401 20.776 57.7656 20.75C58.1562 20.724 58.5339 20.6589 58.8984 20.5547C59.3151 20.4505 59.7188 20.3854 60.1094 20.3594C60.526 20.3333 60.9297 20.3073 61.3203 20.2812C61.7109 20.2552 62.1146 20.2161 62.5312 20.1641C62.9479 20.0859 63.3776 19.9427 63.8203 19.7344C64.1589 19.8646 64.4974 19.9297 64.8359 19.9297C65.2005 19.9297 65.5521 19.9557 65.8906 20.0078C66.0729 20.138 66.2161 20.2812 66.3203 20.4375C66.4505 20.5938 66.5156 20.776 66.5156 20.9844C66.5156 21.349 66.3854 21.7135 66.125 22.0781C65.8646 22.4427 65.6562 22.7812 65.5 23.0938H65.0703C64.4453 23.0938 63.8333 23.1849 63.2344 23.3672C62.6615 23.5234 62.0755 23.7188 61.4766 23.9531C60.9036 24.1615 60.3177 24.3568 59.7188 24.5391C59.1458 24.6953 58.5469 24.7734 57.9219 24.7734C57.8177 24.7734 57.7526 24.8385 57.7266 24.9688C57.7266 25.0729 57.7005 25.151 57.6484 25.2031C57.5182 25.1771 57.3229 25.1641 57.0625 25.1641C56.4635 25.1641 55.8906 25.2292 55.3438 25.3594C54.7969 25.4896 54.237 25.5547 53.6641 25.5547C53.5078 25.5547 53.3516 25.5547 53.1953 25.5547C53.0391 25.5286 52.8828 25.5026 52.7266 25.4766C52.5964 25.6849 52.4271 25.8281 52.2188 25.9062C52.0104 25.9583 51.8151 26.0625 51.6328 26.2188C51.5547 26.4531 51.5026 26.7396 51.4766 27.0781C51.4766 27.4167 51.4635 27.7682 51.4375 28.1328C51.4375 28.4714 51.4115 28.7969 51.3594 29.1094C51.3073 29.4219 51.2031 29.6693 51.0469 29.8516C51.0729 29.9818 51.1771 30.0339 51.3594 30.0078C51.5417 29.9557 51.6328 30.0339 51.6328 30.2422C51.6328 30.4766 51.6068 30.724 51.5547 30.9844C51.5026 31.2448 51.4766 31.5052 51.4766 31.7656C51.4766 32.2604 51.5286 32.8073 51.6328 33.4062C51.763 33.9792 51.9453 34.513 52.1797 35.0078C52.4401 35.5026 52.7786 35.9193 53.1953 36.2578C53.612 36.5703 54.1328 36.7266 54.7578 36.7266C55.1745 36.7266 55.5651 36.6484 55.9297 36.4922C56.2943 36.3359 56.5938 36.0755 56.8281 35.7109L57.0234 35.6719C57.1276 35.6719 57.2188 35.6849 57.2969 35.7109C57.401 35.737 57.5052 35.75 57.6094 35.75C57.7656 35.75 57.9609 35.6589 58.1953 35.4766C58.4557 35.2682 58.7292 35.0339 59.0156 34.7734C59.3281 34.513 59.6406 34.2656 59.9531 34.0312C60.2656 33.7708 60.5651 33.5885 60.8516 33.4844C61.0339 33.1198 61.2031 32.7552 61.3594 32.3906C61.5417 32.026 61.8021 31.7396 62.1406 31.5312V30.3984C62.401 30.112 62.6745 29.8516 62.9609 29.6172C63.2734 29.3828 63.5078 29.0833 63.6641 28.7188C63.7943 28.7708 63.9115 28.8099 64.0156 28.8359C64.1458 28.862 64.276 28.875 64.4062 28.875C64.5365 28.875 64.6667 28.862 64.7969 28.8359C64.9531 28.8099 65.0964 28.7708 65.2266 28.7188C65.4349 29.0052 65.5911 29.3307 65.6953 29.6953C65.8255 30.0339 65.9818 30.3594 66.1641 30.6719C65.9297 31.1406 65.6562 31.7005 65.3438 32.3516C65.0312 33.0026 64.6927 33.6536 64.3281 34.3047C63.9635 34.9557 63.5729 35.5807 63.1562 36.1797C62.7656 36.7526 62.375 37.1953 61.9844 37.5078C61.9062 37.5859 61.737 37.6771 61.4766 37.7812C61.1901 37.9896 60.9297 38.1849 60.6953 38.3672C60.4609 38.5755 60.2396 38.8099 60.0312 39.0703C59.276 39.3047 58.5469 39.6172 57.8438 40.0078C57.1667 40.3984 56.4896 40.776 55.8125 41.1406C55.5 41.0625 55.1615 41.0234 54.7969 41.0234C54.4844 41.0234 54.1719 41.0365 53.8594 41.0625C53.5469 41.1146 53.2083 41.1406 52.8438 41.1406C52.7396 41.0104 52.5833 40.9193 52.375 40.8672C52.1927 40.8411 52.1276 40.7109 52.1797 40.4766C51.2943 40.4245 50.5781 40.1771 50.0312 39.7344C49.4844 39.3177 49.0156 38.7969 48.625 38.1719C48.2604 37.5469 47.9609 36.8698 47.7266 36.1406C47.4922 35.4115 47.2448 34.7083 46.9844 34.0312V33.9141C46.9844 33.7839 47.0365 33.7057 47.1406 33.6797C47.2448 33.6536 47.2969 33.5755 47.2969 33.4453C47.2969 33.3932 47.2839 33.3542 47.2578 33.3281C47.1797 33.0417 47.1146 32.7943 47.0625 32.5859C47.0104 32.3776 46.9844 32.1302 46.9844 31.8438C46.9844 31.4271 47.0104 31.0234 47.0625 30.6328C47.1146 30.2161 47.1406 29.7995 47.1406 29.3828C47.1406 28.9661 47.0885 28.6016 46.9844 28.2891C47.0885 28.1589 47.1797 27.9896 47.2578 27.7812C47.3099 27.5469 47.349 27.3125 47.375 27.0781C47.401 26.8438 47.4141 26.6094 47.4141 26.375C47.4401 26.1406 47.4792 25.9323 47.5312 25.75C47.4271 25.4635 47.3359 25.2161 47.2578 25.0078C47.1797 24.7734 47.1406 24.5 47.1406 24.1875V23.9141C47.401 23.4714 47.6224 23.0156 47.8047 22.5469C47.987 22.0781 48.1823 21.5964 48.3906 21.1016V20.9844C48.3906 20.2292 48.3646 19.474 48.3125 18.7188C48.2604 17.9635 48.2344 17.2083 48.2344 16.4531V15.7109C48.2344 15.4505 48.2474 15.2031 48.2734 14.9688C48.4818 14.8646 48.638 14.7214 48.7422 14.5391C48.8464 14.3568 49.0026 14.2135 49.2109 14.1094H50.5L50.7344 13.7188C50.8125 13.5885 50.8646 13.4453 50.8906 13.2891C51.1771 13.2109 51.4505 13.1068 51.7109 12.9766C51.9974 12.8203 52.2578 12.6641 52.4922 12.5078C52.8568 12.2995 53.1823 12.1172 53.4688 11.9609C53.7812 11.7786 54.0807 11.6354 54.3672 11.5312C54.6797 11.401 55.0052 11.2969 55.3438 11.2188C55.6823 11.1406 56.0729 11.0755 56.5156 11.0234C56.724 11.0234 56.8542 10.9844 56.9062 10.9062C56.9844 10.8281 57.0885 10.737 57.2188 10.6328C57.5312 10.6849 57.8438 10.737 58.1562 10.7891C58.4688 10.8151 58.7812 10.8281 59.0938 10.8281C59.7188 10.8281 60.3047 10.7109 60.8516 10.4766C61.6328 10.4766 62.401 10.4635 63.1562 10.4375C63.9375 10.4115 64.7188 10.3984 65.5 10.3984C66.1771 10.3984 66.8542 10.4245 67.5312 10.4766C68.2083 10.5286 68.8724 10.6198 69.5234 10.75C69.7578 10.6719 70.0182 10.6328 70.3047 10.6328C70.6172 10.6328 70.9297 10.6719 71.2422 10.75C71.5807 10.8021 71.9062 10.8021 72.2188 10.75C72.2448 11.0365 72.3099 11.2839 72.4141 11.4922C72.5443 11.6745 72.6094 11.8958 72.6094 12.1562ZM99.7969 34.1484C99.7188 34.513 99.5495 34.8125 99.2891 35.0469C99.0547 35.2552 98.7682 35.4245 98.4297 35.5547C98.0911 35.6849 97.7396 35.776 97.375 35.8281C97.0365 35.8542 96.724 35.8672 96.4375 35.8672C96.3073 35.8672 96.1771 35.8672 96.0469 35.8672C95.9427 35.8411 95.8255 35.8281 95.6953 35.8281C95.5651 35.8281 95.5 35.8932 95.5 36.0234C95.5 36.1536 95.4349 36.2448 95.3047 36.2969C95.1745 36.2448 95.0443 36.2057 94.9141 36.1797C94.7839 36.1536 94.6536 36.1406 94.5234 36.1406C94.3411 36.1406 94.1589 36.1536 93.9766 36.1797C93.8203 36.2057 93.6641 36.2188 93.5078 36.2188C93.2995 36.2188 93.1432 36.1927 93.0391 36.1406C92.9609 36.0885 92.8828 36.0365 92.8047 35.9844C92.7526 35.9062 92.6875 35.8281 92.6094 35.75C92.5573 35.6719 92.4661 35.6068 92.3359 35.5547C92.1536 35.4766 91.9974 35.4635 91.8672 35.5156C91.763 35.5677 91.5938 35.4896 91.3594 35.2812C91.0469 35.0208 90.7734 34.7083 90.5391 34.3438C90.3307 33.9531 90.1224 33.5495 89.9141 33.1328C89.7057 32.7161 89.4844 32.2995 89.25 31.8828C89.0156 31.4661 88.7422 31.1016 88.4297 30.7891H88.1172C87.6484 30.7891 87.3229 30.9844 87.1406 31.375C87.0104 31.2969 86.8802 31.2057 86.75 31.1016C86.6198 30.9714 86.4766 30.8672 86.3203 30.7891C85.7214 30.9714 85.0964 31.1276 84.4453 31.2578C83.7943 31.388 83.1432 31.4531 82.4922 31.4531H81.9453C81.7891 31.4531 81.6198 31.4271 81.4375 31.375C81.1771 31.4792 80.9427 31.6094 80.7344 31.7656C80.526 31.8958 80.2917 31.9609 80.0312 31.9609C79.875 31.9609 79.6927 31.9089 79.4844 31.8047C79.3281 31.8047 79.25 31.8698 79.25 32C79.276 32.1302 79.1979 32.1953 79.0156 32.1953H78.6641C78.2995 32.1953 77.9349 32.2083 77.5703 32.2344C77.2318 32.2604 76.8802 32.2734 76.5156 32.2734C76.0208 32.2734 75.513 32.2083 74.9922 32.0781C74.862 32.1562 74.7188 32.1953 74.5625 32.1953C74.4583 32.2474 74.3802 32.3385 74.3281 32.4688C74.276 32.5729 74.224 32.6771 74.1719 32.7812C74.1198 32.8594 74.0417 32.9375 73.9375 33.0156C73.8594 33.0677 73.7422 33.0807 73.5859 33.0547C73.5339 33.3672 73.4036 33.6146 73.1953 33.7969C72.987 33.9792 72.8828 34.2526 72.8828 34.6172C72.5964 34.7734 72.362 34.9688 72.1797 35.2031C71.9974 35.4375 71.8151 35.6849 71.6328 35.9453C71.4505 36.2057 71.2552 36.4531 71.0469 36.6875C70.8646 36.9219 70.6302 37.1042 70.3438 37.2344C70.2135 37.3906 70.1745 37.638 70.2266 37.9766C69.9401 38.2109 69.5885 38.4193 69.1719 38.6016C68.7552 38.7839 68.3646 38.875 68 38.875C67.2448 38.875 66.724 38.4714 66.4375 37.6641C66.4375 37.4036 66.4635 37.1302 66.5156 36.8438C66.5417 36.5312 66.5938 36.2448 66.6719 35.9844C66.75 35.6979 66.8672 35.4505 67.0234 35.2422C67.1797 35.0078 67.401 34.8385 67.6875 34.7344C67.6875 34.5 67.6094 34.3438 67.4531 34.2656C67.2969 34.1615 67.2318 33.9922 67.2578 33.7578C67.9609 33.4193 68.5729 32.9766 69.0938 32.4297C69.6146 31.8828 70.0833 31.3099 70.5 30.7109C70.9427 30.0859 71.3854 29.4609 71.8281 28.8359C72.2708 28.2109 72.7656 27.651 73.3125 27.1562V26.3359C74.0938 25.5026 74.6016 24.5651 74.8359 23.5234C75.1224 23.4714 75.3047 23.3411 75.3828 23.1328C75.487 22.9245 75.5391 22.6771 75.5391 22.3906C75.6693 22.3906 75.7474 22.3385 75.7734 22.2344C75.8255 22.1042 75.9427 22.0651 76.125 22.1172C76.3594 21.4922 76.6198 20.9193 76.9062 20.3984C77.1927 19.8776 77.4792 19.3568 77.7656 18.8359C78.0521 18.2891 78.2995 17.7292 78.5078 17.1562C78.7422 16.5833 78.9115 15.9453 79.0156 15.2422C79.3802 15.2161 79.5755 15.0469 79.6016 14.7344C79.6536 14.3958 79.7057 14.0964 79.7578 13.8359C80.1484 13.4714 80.4349 13.0417 80.6172 12.5469C80.8255 12.0521 81.0078 11.5443 81.1641 11.0234C81.3203 10.4766 81.4896 9.94271 81.6719 9.42188C81.8802 8.875 82.1667 8.39323 82.5312 7.97656V7.85938C82.5312 7.72917 82.4792 7.65104 82.375 7.625C82.2708 7.57292 82.2188 7.48177 82.2188 7.35156C82.2448 7.32552 82.2578 7.29948 82.2578 7.27344C82.5703 7.14323 82.8047 6.9349 82.9609 6.64844C83.1172 6.33594 83.3516 6.11458 83.6641 5.98438C84.2109 6.42708 84.6927 6.70052 85.1094 6.80469C85.526 6.88281 86.0729 6.94792 86.75 7C87.0885 7.36458 87.2708 7.80729 87.2969 8.32812C87.349 8.82292 87.4401 9.31771 87.5703 9.8125C87.7786 10.6458 88 11.4661 88.2344 12.2734C88.4948 13.0547 88.6901 13.862 88.8203 14.6953C88.8984 15.1901 89.0417 15.6589 89.25 16.1016C89.4583 16.5443 89.6016 17 89.6797 17.4688C89.7318 17.8333 89.7318 18.25 89.6797 18.7188C89.6276 19.1615 89.6797 19.5521 89.8359 19.8906L90.1094 20.5156C90.2396 20.8021 90.3438 21.1016 90.4219 21.4141C90.526 21.7266 90.6172 22.0391 90.6953 22.3516C90.9036 23.1328 91.0859 23.9792 91.2422 24.8906C91.4245 25.776 91.6979 26.5833 92.0625 27.3125C92.1927 27.5729 92.388 27.7552 92.6484 27.8594C92.9349 27.9635 93.2474 28.0417 93.5859 28.0938C93.9245 28.1198 94.25 28.1328 94.5625 28.1328C94.901 28.1068 95.1875 28.0938 95.4219 28.0938H95.8125C95.9688 28.0938 96.125 28.1198 96.2812 28.1719C96.3854 28.3802 96.4375 28.5625 96.4375 28.7188C96.4375 29.0312 96.3333 29.2786 96.125 29.4609C95.9167 29.6432 95.8125 29.8516 95.8125 30.0859C95.8125 30.2161 95.8646 30.3594 95.9688 30.5156C95.8646 30.4896 95.7083 30.4766 95.5 30.4766C94.901 30.4766 94.3151 30.5807 93.7422 30.7891C93.9505 31.2318 94.224 31.6094 94.5625 31.9219C94.9271 32.2083 95.3047 32.4818 95.6953 32.7422C95.9557 32.5339 96.2292 32.4297 96.5156 32.4297C96.8281 32.4297 97.1146 32.5078 97.375 32.6641C97.6615 32.7943 97.9609 32.8594 98.2734 32.8594C98.5078 32.8594 98.6771 32.8203 98.7812 32.7422C98.9896 32.9766 99.1589 33.224 99.2891 33.4844C99.4193 33.7188 99.5885 33.9401 99.7969 34.1484ZM87.5703 27.8984C87.5182 27.4557 87.4271 27.1432 87.2969 26.9609C87.1927 26.7526 87.1016 26.5052 87.0234 26.2188C86.9193 25.8542 86.8411 25.4635 86.7891 25.0469C86.763 24.6302 86.7109 24.2266 86.6328 23.8359C86.4505 22.9505 86.2422 22.0651 86.0078 21.1797C85.7995 20.2943 85.526 19.4349 85.1875 18.6016C85.2917 18.4453 85.3438 18.3021 85.3438 18.1719V18.0547C85.1094 17.7943 84.9401 17.4818 84.8359 17.1172C84.7318 16.7266 84.6276 16.349 84.5234 15.9844C84.4453 15.5938 84.3281 15.2422 84.1719 14.9297C84.0417 14.5911 83.8203 14.3177 83.5078 14.1094C83.4297 14.2656 83.3906 14.4479 83.3906 14.6562C83.3906 14.8385 83.4036 15.0078 83.4297 15.1641C83.4818 15.3203 83.5078 15.4896 83.5078 15.6719C83.2474 15.8021 83.0521 16.0104 82.9219 16.2969C82.8177 16.5573 82.6354 16.7656 82.375 16.9219C82.1667 17.7552 81.8672 18.5495 81.4766 19.3047C81.0859 20.0339 80.6693 20.763 80.2266 21.4922C79.8099 22.2214 79.4062 22.9635 79.0156 23.7188C78.625 24.4479 78.3125 25.2161 78.0781 26.0234C77.7396 26.2578 77.5052 26.5573 77.375 26.9219C77.2708 27.2865 77.2188 27.651 77.2188 28.0156C77.4531 28.1458 77.7135 28.224 78 28.25C78.3125 28.25 78.612 28.25 78.8984 28.25C79.1849 28.25 79.4583 28.276 79.7188 28.3281C79.9792 28.3802 80.2135 28.5104 80.4219 28.7188C80.7604 28.6146 81.125 28.5495 81.5156 28.5234C81.9323 28.4714 82.2708 28.3542 82.5312 28.1719C83.0521 28.3542 83.612 28.4453 84.2109 28.4453C84.5234 28.4453 84.8229 28.4193 85.1094 28.3672C85.4219 28.3151 85.7214 28.25 86.0078 28.1719C86.2422 28.224 86.4245 28.3151 86.5547 28.4453C86.6849 28.5495 86.8802 28.5885 87.1406 28.5625C87.2708 28.4583 87.349 28.3542 87.375 28.25C87.401 28.1198 87.4661 28.0026 87.5703 27.8984ZM120.773 26.9609C120.773 27.2474 120.669 27.4688 120.461 27.625C120.253 27.7552 120.148 27.9375 120.148 28.1719C120.148 28.276 120.201 28.4062 120.305 28.5625C119.94 28.5625 119.693 28.6797 119.562 28.9141C119.432 29.1484 119.302 29.4089 119.172 29.6953H118.664C118.534 29.6953 118.43 29.7214 118.352 29.7734C118.273 29.8255 118.195 29.9036 118.117 30.0078C118.065 30.0859 117.987 30.2161 117.883 30.3984C117.388 30.5026 116.906 30.6719 116.438 30.9062C115.995 31.1146 115.552 31.349 115.109 31.6094C114.693 31.8438 114.263 32.0911 113.82 32.3516C113.378 32.5859 112.922 32.7812 112.453 32.9375C112.219 33.3281 111.88 33.6406 111.438 33.875H111.32C111.19 33.901 111.073 33.888 110.969 33.8359C110.891 33.7578 110.786 33.7188 110.656 33.7188C110.578 33.7188 110.526 33.7318 110.5 33.7578C109.719 34.2786 108.846 34.5391 107.883 34.5391C107.622 34.5391 107.375 34.526 107.141 34.5C106.906 34.4479 106.659 34.4219 106.398 34.4219C106.32 34.4219 106.268 34.4479 106.242 34.5L106.164 34.6562C106.138 34.7083 106.099 34.7604 106.047 34.8125C106.021 34.8646 105.93 34.8906 105.773 34.8906C105.487 34.8906 105.201 34.8516 104.914 34.7734C104.628 34.6953 104.328 34.6823 104.016 34.7344C103.417 34.3958 102.948 34.0703 102.609 33.7578C102.271 33.4453 101.958 32.9766 101.672 32.3516C101.542 32.0651 101.359 31.7917 101.125 31.5312C100.917 31.2708 100.76 30.9844 100.656 30.6719C100.63 30.5677 100.591 30.3854 100.539 30.125C100.487 29.8385 100.435 29.5391 100.383 29.2266C100.331 28.9141 100.279 28.6146 100.227 28.3281C100.201 28.0417 100.188 27.8464 100.188 27.7422C100.188 27.4297 100.201 27.1302 100.227 26.8438C100.279 26.5312 100.331 26.2188 100.383 25.9062C100.539 24.9167 100.643 23.9271 100.695 22.9375C100.773 21.9219 100.995 20.9453 101.359 20.0078C101.307 19.7214 101.281 19.4479 101.281 19.1875V18.3281C101.281 17.8333 101.216 17.4167 101.086 17.0781C101.294 16.7396 101.398 16.362 101.398 15.9453C101.398 15.4766 101.203 15.2031 100.812 15.125V15.0078C100.812 14.4609 100.63 14.0312 100.266 13.7188C100.266 12.8073 100.487 12.1302 100.93 11.6875C101.398 11.2188 102.01 10.8151 102.766 10.4766C102.87 10.3203 102.909 10.1901 102.883 10.0859C103.065 10.138 103.234 10.1901 103.391 10.2422C103.547 10.2943 103.703 10.3203 103.859 10.3203C104.12 10.3203 104.354 10.2812 104.562 10.2031C104.641 10.5156 104.836 10.7109 105.148 10.7891C105.487 10.8411 105.76 10.9193 105.969 11.0234V11.5312C105.969 12.3385 106.164 13.1068 106.555 13.8359C106.451 14.0443 106.385 14.2656 106.359 14.5C106.333 14.7344 106.32 14.9557 106.32 15.1641C106.32 15.4766 106.333 15.7891 106.359 16.1016C106.385 16.4141 106.398 16.7135 106.398 17C106.398 17.3125 106.359 17.625 106.281 17.9375C106.229 18.25 106.086 18.5234 105.852 18.7578C105.826 19.0964 105.799 19.487 105.773 19.9297C105.773 20.3464 105.747 20.776 105.695 21.2188C105.669 21.6615 105.604 22.0911 105.5 22.5078C105.396 22.9245 105.24 23.263 105.031 23.5234C105.005 23.9141 104.979 24.3177 104.953 24.7344C104.953 25.125 104.953 25.5026 104.953 25.8672C104.953 26.4401 104.979 27.1172 105.031 27.8984C105.109 28.6797 105.292 29.3307 105.578 29.8516C105.708 30.0599 105.956 30.2161 106.32 30.3203C106.711 30.4245 107.023 30.4766 107.258 30.4766C107.544 30.4766 107.831 30.4375 108.117 30.3594C108.43 30.2552 108.651 30.0859 108.781 29.8516C108.938 29.8776 109.042 29.9557 109.094 30.0859C109.146 30.2161 109.237 30.3203 109.367 30.3984C110.852 29.7734 112.336 29.1745 113.82 28.6016C115.305 28.0286 116.763 27.3646 118.195 26.6094C118.404 26.7135 118.625 26.7656 118.859 26.7656C119.12 26.7656 119.38 26.7396 119.641 26.6875C119.901 26.6354 120.161 26.6094 120.422 26.6094H120.695C120.747 26.7656 120.773 26.8828 120.773 26.9609Z" fill="#264653"/>
</svg>
